<?xml version="1.0" encoding="UTF-8"?>
<svg width="57px" height="44px" viewBox="0 0 57 44" version="1.1" xmlns="http://www.w3.org/2000/svg" xmlns:xlink="http://www.w3.org/1999/xlink">
    <!-- Generator: Sketch 49.3 (51167) - http://www.bohemiancoding.com/sketch -->
    <title>burrito_picto</title>
    <desc>Created with Sketch.</desc>
    <defs></defs>
    <g id="Page-1" stroke="none" stroke-width="1" fill="none" fill-rule="evenodd">
        <g id="PRODUITS" transform="translate(-260.000000, -123.000000)" fill="#209D28" fill-rule="nonzero">
            <g id="MENUE" transform="translate(0.000000, 99.000000)">
                <g id="BURRITOS" transform="translate(240.000000, 0.000000)">
                    <g id="burrito_picto" transform="translate(20.000000, 24.000000)">
                        <path d="M43.3322581,0 C39.9612903,0 36.9580645,0.844993141 34.6903226,2.53497942 L5.08709677,24.0219479 C4.78064516,24.2633745 4.41290323,24.5048011 4.10645161,24.7462277 L4.04516129,24.8065844 C1.59354839,26.7983539 0,29.6351166 0,32.7736626 C0,38.9300412 6.12903226,44 13.6677419,44 C16.916129,44 19.9193548,43.0342936 22.3096774,41.4650206 L22.7387097,41.1632373 C22.8,41.1028807 22.8,41.1028807 22.8612903,41.042524 L52.8935484,19.1934156 C55.4677419,17.2620027 57,14.2441701 57,11.1659808 C57,5.00960219 50.8709677,0 43.3322581,0 Z M2.63548387,36.1536351 C2.14516129,35.127572 1.83870968,33.9807956 1.83870968,32.7736626 C1.83870968,32.2304527 1.9,31.6872428 2.02258065,31.1440329 C2.26774194,31.0233196 2.51290323,30.9026063 2.81935484,30.8422497 L4.53548387,30.4197531 C5.45483871,30.1783265 6.31290323,29.7558299 6.98709677,29.0919067 L8.21290323,27.8847737 C9.07096774,27.0397805 10.4193548,26.7379973 11.5225806,27.1001372 L13.116129,27.6433471 C13.9741935,27.9451303 14.9548387,27.9451303 15.8741935,27.7640604 L17.5903226,27.3415638 C18.9387097,27.0397805 20.2870968,27.5226337 20.7774194,28.5486968 L21.0225806,28.9711934 C21.5129032,29.9368999 22.3709677,30.6611797 23.5354839,31.0233196 L23.9645161,31.1440329 C24.8225806,31.4458162 25.3741935,31.9890261 25.5580645,32.7736626 C25.5580645,33.9807956 25.2516129,35.127572 24.7612903,36.1536351 C24.2096774,35.9122085 23.5967742,35.7914952 22.983871,35.7311385 C22.616129,35.7311385 22.3096774,35.7311385 21.9419355,35.7914952 C21.083871,34.2222222 19.4903226,33.1961591 17.5903226,33.0754458 C16.8548387,33.0150892 16.1806452,33.1358025 15.5064516,33.3772291 C14.5870968,32.1097394 13.116129,31.3251029 11.5225806,31.2043896 C9.19354839,31.0836763 7.17096774,32.4718793 6.37419355,34.5240055 C4.84193548,34.6447188 3.55483871,35.1879287 2.63548387,36.1536351 Z M27.3354839,32.6529492 C27.3354839,32.5925926 27.3354839,32.5925926 27.3354839,32.6529492 C27.2129032,26.7983539 21.6354839,22.0301783 14.5870968,21.6076818 C20.2870968,19.9780521 31.9935484,17.744856 49.8290323,19.1934156 L26.7225806,35.9725652 C27.0903226,34.9465021 27.2741935,33.8600823 27.2741935,32.7736626 C27.3354839,32.7133059 27.3354839,32.6529492 27.3354839,32.6529492 Z M5.27096774,26.1344307 L6.12903226,25.5308642 C8.1516129,24.2030178 10.7870968,23.3580247 13.6677419,23.3580247 C18.7548387,23.3580247 23.1677419,25.9533608 24.7612903,29.5747599 C24.6387097,29.5144033 24.5774194,29.5144033 24.4548387,29.4540466 L24.0258065,29.3333333 C23.3516129,29.1522634 22.8612903,28.7297668 22.616129,28.1865569 L22.3709677,27.7640604 C21.4516129,26.0137174 19.2451613,25.1083676 17.1,25.6515775 L15.383871,26.0740741 C14.7709677,26.1947874 14.1580645,26.1947874 13.6064516,26.0137174 L12.0129032,25.4705075 C10.2354839,24.866941 8.1516129,25.3497942 6.80322581,26.6776406 L5.57741935,27.8847737 C5.1483871,28.3072702 4.59677419,28.6090535 4.04516129,28.7297668 L2.81935484,29.0315501 C3.43225806,27.9451303 4.29032258,26.9794239 5.27096774,26.1344307 Z M3.67741935,37.7832647 C4.3516129,36.877915 5.45483871,36.3347051 6.61935484,36.3950617 C6.68064516,36.3950617 6.74193548,36.3950617 6.80322581,36.3950617 L7.66129032,36.515775 L7.84516129,35.7311385 C8.21290323,34.1015089 9.62258065,33.0150892 11.3387097,33.0754458 C12.5645161,33.1358025 13.6677419,33.8600823 14.2193548,35.0068587 L14.6483871,35.9122085 L15.5064516,35.4293553 C16.0580645,35.127572 16.7322581,34.9465021 17.4064516,35.0068587 C18.816129,35.0672154 19.9806452,35.9725652 20.4096774,37.2400549 L20.716129,38.085048 L21.5741935,37.8436214 C22.0032258,37.7229081 22.3709677,37.6625514 22.8,37.6625514 C23.1064516,37.6625514 23.4129032,37.7229081 23.7193548,37.8436214 C21.5741935,40.3786008 17.8967742,42.1893004 13.6677419,42.1893004 C9.43870968,42.1893004 5.76129032,40.4389575 3.67741935,37.7832647 Z M52.0354839,17.563786 C32.483871,15.6927298 19.8580645,18.1673525 13.9129032,19.9176955 L35.7935484,3.92318244 C37.7548387,2.47462277 40.3903226,1.75034294 43.3322581,1.75034294 C49.8290323,1.81069959 55.1612903,5.97530864 55.1612903,11.1659808 C55.1612903,13.5802469 53.9967742,15.9341564 52.0354839,17.563786 Z" id="Shape"></path>
                        <circle id="Oval" cx="30.5" cy="30.5" r="1.5"></circle>
                        <circle id="Oval" cx="32.5" cy="27.5" r="1.5"></circle>
                        <circle id="Oval" cx="27.5" cy="14.5" r="1.5"></circle>
                        <circle id="Oval" cx="37.5" cy="14.5" r="1.5"></circle>
                        <circle id="Oval" cx="47.5" cy="5.5" r="1.5"></circle>
                        <circle id="Oval" cx="51.5" cy="14.5" r="1.5"></circle>
                        <circle id="Oval" cx="47.5" cy="12.5" r="1.5"></circle>
                        <circle id="Oval" cx="51.5" cy="10.5" r="1.5"></circle>
                        <circle id="Oval" cx="32.5" cy="14.5" r="1.5"></circle>
                        <circle id="Oval" cx="28.5" cy="26.5" r="1.5"></circle>
                        <path d="M5.33450328,31.465479 L4.24748831,31.0430588 C3.73595185,30.8740907 3.22441539,31.2120269 3.03258922,31.8878991 C2.90470511,32.5637714 3.16047333,33.2396437 3.67200979,33.4930958 L4.75902476,33.915516 C4.82296682,33.915516 4.95085094,34 5.01479299,34 C5.46238739,34 5.84603974,33.6620639 5.90998179,33.0706756 C6.16575002,32.3948034 5.84603974,31.634447 5.33450328,31.465479 Z" id="Shape"></path>
                        <path d="M19.8178925,33.5382877 C20.0452617,33.8680822 20.4242103,34 20.8031589,34 C21.030528,34 21.1821075,33.9340411 21.4094766,33.8680822 C21.9400046,33.6042466 22.1673738,33.0106166 21.8642149,32.5489043 L21.1821075,31.493562 C20.8789486,31.0318497 20.1968411,30.8339731 19.5905234,31.1637675 C19.0599954,31.4276031 18.8326262,32.0212332 19.1357851,32.4829454 L19.8178925,33.5382877 Z" id="Shape"></path>
                        <path d="M13.5725337,31.3541161 L14.6177746,31.9192645 C14.7484297,32 14.8790848,32 15.0097399,32 C15.4017052,32 15.728343,31.7577936 15.9243256,31.2733807 C16.1203083,30.6274968 15.9243256,29.981613 15.4670328,29.658671 L14.4217919,29.0935227 C13.8991715,28.8513162 13.3112235,29.0935227 13.1152409,29.658671 C12.8539307,30.3852904 13.0499133,31.1119097 13.5725337,31.3541161 Z" id="Shape"></path>
                        <path d="M6.63559322,32.781155 L7.58474576,31.9787234 C8.05932203,31.6139818 8.12711864,30.9574468 7.78813559,30.4468085 C7.44915254,29.9361702 6.77118644,29.8632219 6.36440678,30.2279635 L5.41525424,31.0303951 C4.94067797,31.3951368 4.87288136,32.0516717 5.21186441,32.56231 C5.41525424,32.8541033 5.68644068,33 6.02542373,33 C6.22881356,33 6.43220339,32.9270517 6.63559322,32.781155 Z" id="Shape"></path>
                        <path d="M9.7163474,30.4272518 C9.87307792,30.8090839 10.3432695,31 10.813461,31 C10.9701916,31 11.1269221,31 11.2836526,30.9363613 C11.9105747,30.7454452 12.1456705,30.172697 11.9105747,29.6635875 L11.2836526,28.5817298 C11.0485568,28.0726203 10.3432695,27.8817042 9.7163474,28.0726203 C9.08942532,28.2635364 8.85432953,28.8362846 9.08942532,29.3453941 L9.7163474,30.4272518 Z" id="Shape"></path>
                        <path d="M15.5621214,31.8863456 C15.7064104,31.9431728 15.9228439,32 16.0671329,32 C16.4278555,32 16.8607225,31.8295183 17.0050116,31.5453822 L17.8707457,30.2383562 C18.1593237,29.8405657 17.9428902,29.3291207 17.4378786,29.1018118 C16.9328671,28.8745029 16.2835665,29.0449846 15.9949884,29.4427751 L15.1292543,30.692974 C14.8406763,31.1475917 15.0571098,31.6590367 15.5621214,31.8863456 Z" id="Shape"></path>
                        <path d="M23.1871896,33.2656617 C23.2473977,33.7175622 23.6086468,34 24.0903123,34 C24.1505205,34 24.1505205,34 24.2107286,34 C24.6923941,33.9435124 25.0536432,33.5480995 24.993435,33.0397115 L24.8128104,31.7404976 C24.7526023,31.2885971 24.331145,30.9496718 23.7892714,31.0061593 C23.3076059,31.0626469 22.9463568,31.4580598 23.006565,31.9664478 L23.1871896,33.2656617 Z" id="Shape"></path>
                    </g>
                </g>
            </g>
        </g>
    </g>
</svg>