<?xml version="1.0" encoding="UTF-8"?>
<svg width="33px" height="56px" viewBox="0 0 33 56" version="1.1" xmlns="http://www.w3.org/2000/svg" xmlns:xlink="http://www.w3.org/1999/xlink">
    <!-- Generator: Sketch 49.3 (51167) - http://www.bohemiancoding.com/sketch -->
    <title>boissons_picto</title>
    <desc>Created with Sketch.</desc>
    <defs></defs>
    <g id="Page-1" stroke="none" stroke-width="1" fill="none" fill-rule="evenodd">
        <g id="PRODUITS" transform="translate(-1225.000000, -115.000000)" fill="#209D28" fill-rule="nonzero">
            <g id="MENUE" transform="translate(0.000000, 99.000000)">
                <g id="BOISSONS" transform="translate(1198.000000, 0.000000)">
                    <g id="boissons_picto" transform="translate(27.000000, 16.000000)">
                        <path d="M15.6689419,50.7360682 C15.6689419,50.7360682 15.6689419,50.7360682 15.6689419,50.7360682 C16.0653519,50.3468275 16.1149031,49.7629665 15.7680444,49.3250707 C15.3716344,48.9358301 14.7770194,48.887175 14.3310581,49.2277606 C13.9346481,49.6170012 13.8850969,50.2008623 14.2319556,50.638758 C14.5788144,51.0766538 15.2229806,51.1253089 15.6689419,50.7360682 Z" id="Shape"></path>
                        <path d="M9.67172646,47.7680444 C9.67172646,47.7680444 9.67172646,47.7680444 9.67172646,47.7680444 C10.0648022,47.3716344 10.1139367,46.7770194 9.76999539,46.3310581 C9.42605413,45.9346481 8.78730607,45.8850969 8.34509587,46.2319556 C7.90288567,46.5788144 7.90288567,47.2229806 8.24682694,47.6689419 C8.63990267,48.0653519 9.27865073,48.1149031 9.67172646,47.7680444 Z" id="Shape"></path>
                        <path d="M9.33105813,49.2639318 C8.93464813,49.6531725 8.88509688,50.2370335 9.23195563,50.6749293 C9.62836563,51.0641699 10.2229806,51.112825 10.6689419,50.7722394 C10.6689419,50.7722394 10.6689419,50.7722394 10.6689419,50.7722394 C11.0653519,50.3829988 11.1149031,49.7991377 10.7680444,49.361242 C10.3716344,48.9233462 9.72746813,48.8746911 9.33105813,49.2639318 Z" id="Shape"></path>
                        <path d="M31.8352941,11.7337983 L22.7764706,11.7337983 L22.7764706,8.60912525 L29.3764706,1.969195 C29.8294118,1.51351351 29.8294118,0.797442604 29.3764706,0.341761116 C28.9235294,-0.113920372 28.2117647,-0.113920372 27.7588235,0.341761116 L20.8352941,7.30717815 C20.6411765,7.50247021 20.5117647,7.82795699 20.5117647,8.08834641 L20.5117647,11.7337983 L1.16470588,11.7337983 C1.16470588,11.7337983 1.16470588,11.7337983 1.16470588,11.7337983 C0.517647059,11.7337983 0,12.2545772 0,12.9055507 L0,17.1368788 C0,17.1368788 0,17.1368788 0,17.1368788 C0,17.7878524 0.517647059,18.3086312 1.16470588,18.2435339 L2.00588235,18.2435339 L5.95294118,54.9584423 C6.01764706,55.5443185 6.47058824,56 7.05294118,56 L25.9470588,56 C26.5294118,56 27.0470588,55.5443185 27.1117647,54.9584423 L31.0588235,18.2435339 L31.8352941,18.2435339 C31.8352941,18.2435339 31.8352941,18.2435339 31.8352941,18.2435339 C32.4823529,18.2435339 33,17.722755 33,17.0717815 L33,12.8404534 C33,12.8404534 33,12.8404534 33,12.8404534 C33,12.1894798 32.4823529,11.7337983 31.8352941,11.7337983 Z M2.26470588,14.0122058 L21.6117647,14.0122058 C21.6117647,14.0122058 21.6117647,14.0122058 21.6117647,14.0122058 L30.6705882,14.0122058 L30.6705882,15.9651264 L3.17058824,15.9651264 C3.10588235,15.9651264 3.04117647,15.9651264 2.97647059,15.9651264 L2.26470588,15.9651264 L2.26470588,14.0122058 Z M24.9764706,53.6564952 L8.08823529,53.6564952 L4.33529412,18.2435339 L28.7941176,18.2435339 L24.9764706,53.6564952 Z" id="Shape"></path>
                    </g>
                </g>
            </g>
        </g>
    </g>
</svg>