<?xml version="1.0" encoding="UTF-8"?>
<svg width="55px" height="47px" viewBox="0 0 55 47" version="1.1" xmlns="http://www.w3.org/2000/svg" xmlns:xlink="http://www.w3.org/1999/xlink">
    <!-- Generator: Sketch 49.3 (51167) - http://www.bohemiancoding.com/sketch -->
    <title>Icon:_Nachos</title>
    <desc>Created with Sketch.</desc>
    <defs></defs>
    <g id="Page-1" stroke="none" stroke-width="1" fill="none" fill-rule="evenodd">
        <g id="PRODUITS" transform="translate(-742.000000, -119.000000)" fill="#209D28">
            <g id="MENUE" transform="translate(0.000000, 99.000000)">
                <g id="NACHOS" transform="translate(720.000000, 0.000000)">
                    <path d="M76.8479815,28.937892 C76.6563934,28.6369579 76.3134142,28.4419952 75.9322469,28.4173529 L56.3214716,27.2696585 L58.1818804,21.324225 C58.2866195,20.989964 58.2008158,20.6301738 57.9532453,20.3655182 C57.7056749,20.1008625 57.3291236,19.9663898 56.9498763,20.0071985 L23.0084413,23.7011441 C22.6002449,23.7458445 22.2500316,23.9869641 22.0916982,24.3323159 C21.9333648,24.6776678 21.9913967,25.073845 22.2436066,25.3693775 L34.1640034,39.3173144 L22.7197334,43.4565403 C22.3375342,43.5937698 22.0664165,43.9080127 22.0105722,44.278504 C21.9547278,44.6489953 22.1228462,45.0180862 22.4503187,45.2439333 L53.5604872,66.7867225 C53.7573402,66.9262144 54.0000554,67.0013259 54.2495275,66.9999554 C54.8723034,67.005182 55.3823205,66.5507883 55.3898892,65.9839636 L55.6289861,54.0742818 L58.7441372,59.5368057 C58.9402827,59.8805307 59.3307957,60.0958754 59.7563374,60.094974 L59.766673,60.094974 C60.1969547,60.093363 60.588988,59.8697406 60.7781841,59.517991 L76.8810554,29.9162544 C77.0506492,29.6056535 77.0382346,29.2384151 76.8479815,28.937892 Z M25.3,26.4367284 L55,23 L53.5034936,28.1026235 L41.5449795,27.3549383 C41.1413472,27.3311501 40.7556585,27.5193731 40.5350802,27.847787 C40.314502,28.176201 40.2930643,28.5941393 40.4789471,28.9421296 L44.6564403,36.7469136 L36.195866,40 L25.3,26.4367284 Z M25.3,45.0869565 L53.9,35 L53.3039636,64 L25.3,45.0869565 Z M60.2604444,57 L56.1886984,49.9921997 L56.5295238,33.3057722 C56.5353144,32.9606384 56.3486657,32.6355209 56.0315556,32.4383775 C55.7128076,32.2441736 55.3076537,32.202189 54.947619,32.326053 L47.4746032,34.9843994 L44,29 L74.8,30.7659906 L60.2604444,57 Z M49.4982191,41.5096597 C49.5040782,40.6817875 48.7714311,40.0061332 47.8612617,40.0000415 C46.9510922,39.9939498 46.2075933,40.6597243 46.2000577,41.4875854 C46.1925222,42.3154464 46.9237997,42.992327 47.8339553,42.9999436 C48.2721971,43.0033948 48.6939828,42.8482933 49.0064559,42.5687848 C49.3189291,42.2892762 49.4964726,41.9082753 49.5,41.5096597 L49.4982191,41.5096597 Z M48.9677405,54.0000872 C48.300041,53.9935625 47.6938424,54.3535402 47.4320939,54.9119971 C47.1703455,55.470454 47.3046574,56.1172765 47.7723383,56.5505537 C48.2400192,56.9838309 48.9488541,57.1181314 49.5679873,56.8907691 C50.1871204,56.6634068 50.5944743,56.1192118 50.5999124,55.5121927 C50.6044168,55.1150871 50.4351412,54.7326327 50.1293532,54.44903 C49.8235652,54.1654274 49.406335,54.003928 48.9695195,54.0000872 L48.9677405,54.0000872 Z M37.9632819,29.0000496 C37.0526421,28.9933857 36.3082463,29.6586813 36.3000679,30.4865288 C36.2918896,31.3143763 37.0230213,31.9917189 37.9336459,31.9999248 C38.8442705,32.0081306 39.5900281,31.3440968 39.5999027,30.5162645 C39.6046572,30.118016 39.4349977,29.7343975 39.1283253,29.449977 C38.8216529,29.1655564 38.4031468,29.003686 37.9650657,29.0000496 L37.9632819,29.0000496 Z M61.0323485,47.9999125 C61.9429612,48.0087625 62.6892875,47.3452721 62.6998859,46.5174575 C62.7104844,45.689643 61.9813472,45.010541 61.0707546,45.0001213 C60.1601621,44.9897016 59.4124532,45.6519043 59.400128,46.479699 C59.3946709,46.8783766 59.5638486,47.2626599 59.8703653,47.5478318 C60.1768819,47.8330037 60.5955699,47.9956492 61.0341275,47.9999125 L61.0323485,47.9999125 Z M36.8518446,45.0000009 C36.1840499,44.9993311 35.5816579,45.3646631 35.3258773,45.9254525 C35.0700966,46.4862419 35.211369,47.1318975 35.6837455,47.561014 C36.1561221,47.9901306 36.8664471,48.1180837 37.4831265,47.8851421 C38.099806,47.6522006 38.5012266,47.1043021 38.4999972,46.4972167 C38.5001585,46.1000854 38.3266942,45.7191775 38.0177986,45.4383633 C37.708903,45.1575491 37.2899043,44.9998543 36.85306,45.0000009 L36.8518446,45.0000009 Z M67.6481787,33.9999991 C68.5592897,34.0009129 69.2987688,33.3303065 69.2999985,32.5020244 C69.3012281,31.6737423 68.5637428,31.0013238 67.6526323,31.000002 C66.7415219,30.9986801 66.0016795,31.6689553 66.000001,32.4972367 C65.9995172,32.8953545 66.1730203,33.2773412 66.4823416,33.5591639 C66.7916629,33.8409865 67.2114643,33.9995597 67.6493942,33.9999991 L67.6481787,33.9999991 Z" id="Icon:_Nachos"></path>
                </g>
            </g>
        </g>
    </g>
</svg>