<?xml version="1.0" encoding="UTF-8"?>
<svg width="61px" height="33px" viewBox="0 0 61 33" version="1.1" xmlns="http://www.w3.org/2000/svg" xmlns:xlink="http://www.w3.org/1999/xlink">
    <!-- Generator: Sketch 49.3 (51167) - http://www.bohemiancoding.com/sketch -->
    <title>Icon:_Quesadilla</title>
    <desc>Created with Sketch.</desc>
    <defs></defs>
    <g id="Page-1" stroke="none" stroke-width="1" fill="none" fill-rule="evenodd">
        <g id="PRODUITS" transform="translate(-487.000000, -127.000000)" fill="#209D28">
            <g id="MENUE" transform="translate(0.000000, 99.000000)">
                <g id="QUESADILLAS" transform="translate(480.000000, 0.000000)">
                    <path d="M65.0606719,39.5660797 C61.5977918,34.1565644 55.4826343,30.0612251 47.8398955,28.0318928 C47.4065848,27.9162943 46.9523338,28.1225772 46.7496289,28.527001 L46.353992,29.3216191 C42.0424556,31.3265016 35.6101845,33.2519223 28.7895248,29.6150165 L28.2459016,28.527001 C28.0436358,28.1237656 27.5910316,27.9176596 27.1586551,28.0318928 C19.5165203,30.0612251 13.4007587,34.1565644 9.93848267,39.5660797 C6.42063623,45.0672817 6.04916034,51.2347404 8.88989383,56.9437656 C8.89157027,56.9477409 8.8929828,56.9518249 8.89412201,56.9559905 L8.90137032,56.9743279 L10.5708977,60.4645349 C10.7824371,60.8706944 11.2394788,61.0796646 11.6804932,60.971868 L17.4724969,59.3459572 C18.5874676,59.69912 19.7742002,59.7517917 20.9154441,59.4987683 C22.1760319,59.2438387 23.3155187,58.5679473 24.1512105,57.5794601 C25.9282545,56.9254283 27.3108696,57.8850824 29.7970399,57.2127133 C30.7826824,56.9163102 31.6391254,56.2889384 32.2252237,55.4339913 L37.5032015,54.0097912 L46.9133199,56.5036695 C48.1360599,57.7502527 49.7450808,58.5336258 51.4706948,58.7224876 C52.5643923,58.8156384 53.6655247,58.7580629 54.7439107,58.5513391 L63.3210775,60.9535306 C63.7661689,61.093254 64.2444277,60.8757668 64.4367132,60.4461976 L66.0838917,56.9987776 C66.0881991,56.9894491 66.0943689,56.9811244 66.1020125,56.9743279 C68.9512023,51.2530778 68.5833506,45.0733942 65.0606719,39.5660797 Z M64.6567701,55 L41,48.7362069 L63.7884674,41 C66.391083,45.2216208 66.7174057,50.4830553 64.6567701,55 Z M44,54 L38,52.1074523 L38,50 L40.2628144,50.7140381 C41.9894414,51.2616984 43.0174698,52.5511265 44,54 Z M37,50 L37,51.4074074 L34,52 C34.7431506,51.1482402 35.7784669,50.4580293 37,50 Z M62,39.2564821 L39,47 L47.5712145,30 C53.8139018,31.7810091 58.8703359,35.0273301 61.9988114,39.2564821 L62,39.2564821 Z M37.5002658,33.6290909 C40.4048526,33.6074211 43.2826766,33.0558465 46,32 L44.8765044,34.2884848 C42.1639035,35.620202 38.5175697,34.8767677 40.2895258,36.0533333 C43.3056213,38.0573737 39.2772488,38.8848485 38.927256,39.5571717 C38.6444971,40.0937374 40.6791048,40.1260606 42.1676736,39.8028283 L38.1418145,48 L36.6274832,44.9163636 C37.4839287,44.8969697 38.4798685,44.8646465 38.3868723,44.2763636 C38.251148,43.3971717 35.2633283,43.080404 36.9272077,42.2335354 C38.4918072,41.4383838 36.2705786,41.2509091 33.9582387,39.4860606 L33,37.5337374 C35.1037266,38.2707071 37.7126492,38.3806061 37.7754846,37.6630303 C37.9011552,36.2343434 33.0823143,34.6828283 34.7637875,33.8747475 C34.9733132,33.7871482 35.1686629,33.6672575 35.3431292,33.5191919 C36.0594817,33.593383 36.7790368,33.6300633 37.4990091,33.6290909 L37.5002658,33.6290909 Z M26.4287855,30 L35,47 L12,39.2564821 C15.1266925,35.0273301 20.1831266,31.7810091 26.4275969,30 L26.4287855,30 Z M11.2120484,41 L34,48.7362069 L10.3437426,55 C8.28274135,50.4832557 8.6086159,45.2218285 11.210854,41 L11.2120484,41 Z M11,57.1261809 C13.0915874,56.7500493 14.1151426,57.2697947 15,57.9605091 L11.7760059,59 L11,57.1261809 Z M20.7656445,56.8700937 C18.3816403,57.5218382 16.7280846,55.5204634 16,55.3012927 L25,53 C24.3345591,53.5998357 23.4008142,56.1433697 20.7644625,56.8700937 L20.7656445,56.8700937 Z M29.6808961,55.7900852 C28.1293879,56.255639 26.7637149,55.7900852 26,55.8676775 C27.0390721,54.5366712 28.3899277,53.2414767 31.5515964,52.3700556 L33,52 C32.3665549,52.6207384 30.9984124,55.3961551 29.6796613,55.7900852 L29.6808961,55.7900852 Z M51.1210791,56.9455761 C48.1012527,56.480432 45.7180904,52.8960864 45,52 L58,55.6390684 C57.4755376,55.8032369 53.451667,57.3012745 51.116591,56.9455761 L51.1210791,56.9455761 Z M63.2493372,59 L59,57.725519 C60.6245029,57.2169233 62.1412947,56.7920962 63.2587274,57.1092206 L64,57.3186424 L63.2493372,59 Z M24.5100706,36.9999875 C25.3376005,36.9944314 26.0042941,36.3197328 25.9999792,35.4921896 C25.9956642,34.6646463 25.3219711,33.9969367 24.4944283,34.0000106 C23.6668854,34.0030844 22.9981711,34.6757802 23.0000038,35.5033327 C23.0040718,36.3334673 23.6799387,37.0033314 24.5100706,36.9999875 Z M46.5060267,42.9999963 C47.3336611,42.9966709 48.0022092,42.3236308 47.9999945,41.4959904 C47.9977798,40.6683499 47.3256394,39.9988974 46.4979991,40.0000014 C45.6703587,40.0011054 45.0000067,40.6723487 45,41.4999921 C45.0005321,41.8985833 45.1594738,42.2806181 45.4418218,42.561962 C45.7241697,42.843306 46.1067676,43.0008851 46.5053571,42.9999963 L46.5060267,42.9999963 Z M60.4933036,49.0000096 C59.6657583,49.003704 58.9975466,49.6769052 59.0000068,50.5044566 C59.002467,51.332008 59.6746696,52.0012243 60.5022223,51.9999983 C61.3297749,51.9987723 61.9999918,51.3275673 62,50.5000122 C61.999469,50.1010723 61.8402515,49.7187324 61.5574685,49.4373308 C61.2746856,49.1559292 60.891571,48.9985863 60.492634,49.0000096 L60.4933036,49.0000096 Z M19.5060267,48.9999946 C20.3336611,48.9966693 21.0022092,48.3236295 20.9999945,47.4959895 C20.9977798,46.6683495 20.3256394,45.9988974 19.4979991,46.0000014 C18.6703587,46.0011054 18.0000067,46.6723483 18,47.4999913 C18.0005318,47.8986986 18.1595654,48.2808349 18.4420584,48.562198 C18.7245513,48.8435611 19.1073214,49.0010615 19.5060267,48.9999946 Z M26.0063923,40.9999949 C26.5574166,40.996471 27.0017534,40.5478517 26.9999948,39.9968161 C26.9982361,39.4457805 26.5510448,39.0000066 26.0000093,39 C25.4489737,38.9999934 25.0017718,39.4457568 25,39.9967923 C24.9999986,40.2634127 25.1061308,40.5190665 25.2949584,40.7072956 C25.483786,40.8955247 25.7397747,41.000844 26.0063923,40.9999949 Z M13.0057534,46.9999982 C13.5568634,46.9968259 14.0015209,46.5483602 13.9999961,45.9972405 C13.9984712,45.4461208 13.5513389,45.0001225 13.0002197,45 C12.4491005,44.9998775 12.0017699,45.4456769 12,45.9967959 C12.0001691,46.2632529 12.1062681,46.5187105 12.2949203,46.7068842 C12.4835726,46.8950579 12.7392981,47.000507 13.0057534,46.9999982 Z M62.9974522,45.0000033 C62.4455013,45.0014095 61.9990646,45.4497455 62.0000015,46.0016974 C62.0009384,46.5536493 62.4488946,47.0004672 63.0008471,46.9999996 C63.5527996,46.9995321 63.9999982,46.5519559 64,46.0000032 C64.0000009,45.7343447 63.8942944,45.479604 63.7062066,45.2919942 C63.5181188,45.1043844 63.2631099,44.9993264 62.9974522,45.0000033 Z M48.9974522,48 C48.4455013,48.0014063 47.9990646,48.449743 48.0000015,49.0016958 C48.0009384,49.5536486 48.4488946,50.0004672 49.0008471,49.9999996 C49.5527996,49.9995321 49.9999982,49.5519552 50,49.0000016 C49.9975496,48.4477402 49.5497172,48.0010452 48.9974522,48 Z M49.0063947,34.9999897 C49.5582489,34.9964606 50.0029222,34.5465443 49.9999855,33.9946838 C49.9970489,33.4428233 49.5476125,32.9976649 48.995752,33.0000092 C48.4438915,33.0023535 47.9982533,33.4513141 48.0000051,34.0031796 C48.0028216,34.5562782 48.4532975,35.0024661 49.0063947,34.9999897 Z M55.0025478,37.9999901 C55.5544987,37.9985838 56.0009354,37.5502493 55.9999985,36.9982992 C55.9990616,36.4463492 55.5511054,35.9995328 54.9991529,36.0000004 C54.4472004,36.0004679 54.0000018,36.4480426 54,36.9999934 C54.0001667,37.2660418 54.1062772,37.521071 54.29488,37.708717 C54.4834828,37.896363 54.7390488,38.0011756 55.0050955,37.9999901 L55.0025478,37.9999901 Z M55.9974522,46 C55.4455013,46.0014063 54.9990646,46.449743 55.0000015,47.0016958 C55.0009384,47.5536486 55.4488946,48.0004672 56.0008471,47.9999996 C56.5527996,47.9995321 56.9999982,47.5519552 57,47.0000016 C57,46.7347847 56.8946432,46.4804304 56.7071068,46.2928937 C56.5195704,46.105357 56.2652165,46 56,46 L55.9974522,46 Z M12.0000051,51.9968115 C11.9987201,52.4016119 12.241611,52.7672563 12.6152544,52.9229986 C12.9888978,53.0787409 13.4195789,52.9938554 13.7061814,52.7079812 C13.9927839,52.422107 14.0787651,51.9916433 13.923974,51.6176048 C13.7691829,51.2435663 13.4041578,50.9997458 12.9993554,51.0000008 C12.7348814,50.9996633 12.4811426,51.1045757 12.2941311,51.2915872 C12.1071196,51.4785986 12.0022072,51.7323375 12.0025447,51.9968115 L12.0000051,51.9968115 Z M25.0031847,49.9999835 C25.5550514,49.998226 26.0011685,49.5497381 25.9999977,48.9978729 C25.9988269,48.4460077 25.550811,47.9994166 24.9989418,48.0000006 C24.4470725,48.0005846 24.0000028,48.4481228 24,48.9999892 C23.9999956,49.2662004 24.106139,49.5214255 24.294917,49.7091265 C24.4836951,49.8968274 24.7395241,50.0015096 25.0057325,49.9999835 L25.0031847,49.9999835 Z M18.0057558,39.9999795 C18.5576958,39.9968026 19.0026905,39.547043 18.9999878,38.9951015 C18.997285,38.44316 18.5479071,37.9977798 17.9959624,38.0000083 C17.4440178,38.0022368 16.9982509,38.4512311 17.0000052,39.0031764 C17.0013566,39.2691246 17.1083902,39.5236236 17.2975223,39.710598 C17.4866544,39.8975724 17.7423651,40.0016791 18.0083117,39.9999795 L18.0057558,39.9999795 Z" id="Icon:_Quesadilla"></path>
                </g>
            </g>
        </g>
    </g>
</svg>