<?xml version="1.0" encoding="UTF-8"?>
<svg width="55px" height="56px" viewBox="0 0 55 56" version="1.1" xmlns="http://www.w3.org/2000/svg" xmlns:xlink="http://www.w3.org/1999/xlink">
    <!-- Generator: Sketch 49.3 (51167) - http://www.bohemiancoding.com/sketch -->
    <title>tacos_picto</title>
    <desc>Created with Sketch.</desc>
    <defs></defs>
    <g id="Page-1" stroke="none" stroke-width="1" fill="none" fill-rule="evenodd">
        <g id="PRODUITS" transform="translate(-20.000000, -115.000000)" fill="#209D28" fill-rule="nonzero">
            <g id="MENUE" transform="translate(0.000000, 99.000000)">
                <g id="TACOS">
                    <g id="tacos_picto" transform="translate(20.000000, 16.000000)">
                        <path d="M19.6428571,39 C18.5714286,39 17.6785714,39.9090909 17.6785714,41 C17.6785714,41 17.6785714,41 17.6785714,41 C17.6785714,42.0909091 18.5714286,43 19.6428571,43 C19.6428571,43 19.6428571,43 19.6428571,43 C20.7142857,43 21.6071429,42.0909091 21.6071429,41 C21.6071429,39.9090909 20.7142857,39 19.6428571,39 Z" id="Shape"></path>
                        <path d="M15.2232143,28 C14.4375,28 13.75,28.6 13.75,29.5 C13.75,29.5 13.75,29.5 13.75,29.5 C13.75,30.3 14.3392857,31 15.2232143,31 C16.0089286,31 16.6964286,30.4 16.6964286,29.5 C16.6964286,28.7 16.1071429,28 15.2232143,28 Z" id="Shape"></path>
                        <path d="M20.625,18 C19.5535714,18 18.6607143,18.9090909 18.6607143,20 C18.6607143,20 18.6607143,20 18.6607143,20 C18.6607143,21.0909091 19.5535714,22 20.625,22 C21.6964286,22 22.5892857,21.0909091 22.5892857,20 C22.5892857,18.9090909 21.6964286,18.0909091 20.625,18 Z" id="Shape"></path>
                        <path d="M46.6517857,18 C45.8660714,18 45.1785714,18.6 45.1785714,19.5 C45.1785714,19.5 45.1785714,19.5 45.1785714,19.5 C45.1785714,20.3 45.7678571,21 46.6517857,21 C46.6517857,21 46.6517857,21 46.6517857,21 C47.4375,21 48.125,20.4 48.125,19.5 C48.125,18.7 47.4375,18 46.6517857,18 Z" id="Shape"></path>
                        <path d="M54.1732129,16.2316996 C54.1043139,16.1618164 54.035415,16.0919333 53.9665161,16.0220501 C51.6239525,12.8773086 48.7301975,10.5012817 45.5608467,8.82408626 C45.0096553,8.54455368 44.320666,7.07700765 44.1139692,5.67934477 C43.9072724,4.84074703 43.6316767,4.07203245 43.1493842,3.44308415 C41.426911,0.997174099 38.0508635,0.438108945 35.639401,2.18518755 L35.570502,2.2550707 C35.5016031,2.32495384 35.3638053,2.46472013 35.2949063,2.53460327 C33.9858267,3.51296729 32.1255556,3.23343472 31.1609706,1.90565497 C30.1274867,0.438108945 28.3361145,-0.260722498 26.5447424,0.0886932231 C24.5466734,0.438108945 22.8930991,1.83577183 22.2730088,3.79249987 C22.2041098,3.93226616 22.2041098,4.0021493 22.1352109,4.14191559 C21.4462216,5.67934477 19.6548495,6.30829307 18.207972,5.53957848 C16.5543977,4.70098075 14.5563287,4.91063018 13.0405523,6.09864363 C11.5247759,7.21677394 10.7668876,9.17350198 11.1113823,11.0603469 C11.2491801,11.8989446 11.0424834,12.8074255 10.4912919,13.5062569 C9.94010049,14.2050884 9.18221227,14.5545041 8.2865262,14.6243872 C6.42625512,14.6942704 4.77268082,15.8124007 3.94589368,17.5594793 C3.11910653,19.3065579 3.32580332,21.3331691 4.42818618,22.8705983 C4.91047868,23.5694297 5.11717547,24.4779106 4.97937761,25.3165083 C4.84157975,26.155106 4.29038832,26.9238206 3.5325001,27.3431195 C2.70571296,27.8323015 1.94782474,28.6010161 1.53443117,29.509497 C1.25883545,30.0685621 1.12103759,30.6276273 1.05213866,31.1866924 C-1.22152599,39.0834877 0.225351516,47.5393482 5.04827654,54.1782469 C5.94396262,55.3662604 7.39084012,56.0650918 8.90661656,55.9952087 C10.4912919,55.9952087 12.0759673,55.4361435 13.316148,54.3878963 L51.9684471,24.68756 C53.2775268,23.709196 54.3110107,22.3115331 54.7933032,20.7042208 C55.2066968,19.0969085 55,17.4895962 54.1732129,16.2316996 Z M14.0051373,49.7756088 C13.6606427,50.8937391 12.9716534,51.8721031 12.0070684,52.5709346 C10.0778984,54.0384806 7.59753691,54.1083638 6.56405298,52.780584 C2.84351082,47.6791145 1.32773438,41.3197484 2.15452153,35.1001485 C2.63681403,35.5893305 3.11910653,36.0086294 3.73919689,36.288162 C4.42818618,36.6375777 4.91047868,37.1267597 5.25497333,37.755708 C5.25497333,37.8255911 5.32387226,37.8255911 5.25497333,37.8255911 C5.46167011,38.6641889 5.80616476,39.5027866 6.35735619,40.201618 C6.42625512,40.3413843 6.56405298,40.4112675 6.70185083,40.5510338 C6.01286154,41.8089304 6.01286154,43.2764764 6.63295191,44.534373 C5.46167011,46.491101 5.53056904,48.9370111 6.90854762,50.7539728 C7.45973905,51.5226874 8.2865262,52.1516357 9.11331335,52.5010514 C9.80230263,52.3612852 10.4912919,52.0817526 11.1113823,51.5925706 C12.6271587,50.4744403 13.1094512,48.7972448 12.5582598,48.0285302 C9.04441442,43.2065933 7.18414334,37.4062923 7.32194119,31.3963419 C6.28845726,32.3048227 5.6683669,33.4928362 5.32387226,34.6808496 C5.11717547,34.5410834 4.84157975,34.4013171 4.63488297,34.2615508 C4.08369154,33.9820182 3.67029796,33.5627193 3.32580332,33.0735373 C2.49901617,31.6059913 2.98130867,29.7191464 4.42818618,28.8805487 C5.6683669,28.1118341 6.56405298,26.9238206 6.83964869,25.4562746 C7.11524441,23.9887286 6.77074976,22.5211825 5.94396262,21.3331691 C5.25497333,20.4246882 5.1860744,19.2366748 5.6683669,18.1884276 C6.1506594,17.1401804 7.11524441,16.5112321 8.21762727,16.441349 C9.66450478,16.3714658 10.9735844,15.6726344 11.8692705,14.5545041 C12.7649566,13.4363738 13.1783502,11.8989446 12.9716534,10.5012817 C12.7649566,9.38315141 13.2472491,8.26502111 14.1429352,7.56618966 C15.0386212,6.86735822 16.209903,6.72759193 17.174488,7.28665709 C18.4835677,7.91560538 19.9993441,7.91560538 21.3084238,7.35654023 C22.6175034,6.79747508 23.6509873,5.67934477 24.1332798,4.28168188 C24.5466734,3.09366843 25.5801574,2.18518755 26.8203381,1.97553812 C27.853822,1.76588869 28.8873059,2.18518755 29.4384974,3.02378528 C29.5762952,3.16355157 29.7140931,3.30331786 29.782992,3.51296729 C31.6432631,5.53957848 34.8126138,5.67934477 36.8795817,3.72261673 C37.7752678,3.09366843 39.0154485,2.95390214 39.9800335,3.44308415 C41.0824164,3.86238301 41.8403046,4.77086389 42.0470014,5.95887734 C42.1159003,6.37817621 42.2536982,6.86735822 42.391496,7.35654023 C34.674816,4.56121446 25.7868541,5.60946162 18.7591634,10.9904637 C7.59753691,19.7258568 5.32387226,35.8688631 13.6606427,47.3296988 C14.1429352,48.0285302 14.280733,48.9370111 14.0051373,49.7756088 Z M52.7952343,19.9355062 C52.3818407,21.1235197 51.6928514,22.1018837 50.6593675,22.8705983 L16.1410041,49.3563099 C16.278802,48.1682965 16.0032062,46.980283 15.3142169,46.001919 C7.66643584,35.4495642 9.73340371,20.6343376 19.9993441,12.6676592 C23.995482,9.59280085 28.8873059,7.91560538 33.9169278,7.91560538 C35.0193106,7.91560538 36.1216935,7.98548853 37.2929753,8.12525482 C43.4249799,9.03373569 48.9368943,12.3881266 52.5885375,17.419713 C53.0019311,18.2583107 53.07083,19.1667916 52.7952343,19.9355062 Z" id="Shape"></path>
                        <path d="M39.7767857,25 C38.9910714,25 38.3035714,25.6 38.3035714,26.5 C38.3035714,26.5 38.3035714,26.5 38.3035714,26.5 C38.3035714,27.3 38.8928571,28 39.7767857,28 C39.7767857,28 39.7767857,28 39.7767857,28 C40.5625,28 41.25,27.4 41.25,26.5 C41.1517857,25.7 40.5625,25 39.7767857,25 Z" id="Shape"></path>
                        <path d="M31.9196429,20 C31.1339286,20 30.4464286,20.6 30.4464286,21.5 C30.4464286,21.5 30.4464286,21.5 30.4464286,21.5 C30.4464286,22.3 31.0357143,23 31.9196429,23 C31.9196429,23 31.9196429,23 31.9196429,23 C32.7053571,23 33.3928571,22.4 33.3928571,21.5 C33.3928571,20.7 32.8035714,20 31.9196429,20 Z" id="Shape"></path>
                        <path d="M40.2678571,12 C39.1964286,12 38.3035714,12.9090909 38.3035714,14 C38.3035714,14 38.3035714,14 38.3035714,14 C38.3035714,15.0909091 39.1964286,16 40.2678571,16 C41.3392857,16 42.2321429,15.0909091 42.2321429,14 C42.2321429,12.9090909 41.3392857,12 40.2678571,12 Z" id="Shape"></path>
                        <path d="M32.4107143,13.5 C32.4107143,12.7 31.8214286,12 30.9375,12 C30.1517857,12 29.4642857,12.6 29.4642857,13.5 C29.4642857,13.5 29.4642857,13.5 29.4642857,13.5 C29.4642857,14.3 30.0535714,15 30.9375,15 C30.9375,15 30.9375,15 30.9375,15 C31.7232143,15 32.4107143,14.4 32.4107143,13.5 Z" id="Shape"></path>
                        <path d="M25.0446429,27 C24.2589286,27 23.5714286,27.6 23.5714286,28.5 C23.5714286,28.5 23.5714286,28.5 23.5714286,28.5 C23.5714286,29.3 24.1607143,30 25.0446429,30 C25.0446429,30 25.0446429,30 25.0446429,30 C25.8303571,30 26.5178571,29.4 26.5178571,28.5 C26.5178571,27.7 25.8303571,27 25.0446429,27 Z" id="Shape"></path>
                        <path d="M27.9910714,35 C27.2053571,35 26.5178571,35.6 26.5178571,36.5 C26.5178571,36.5 26.5178571,36.5 26.5178571,36.5 C26.5178571,37.3 27.1071429,38 27.9910714,38 C28.7767857,38 29.4642857,37.4 29.4642857,36.5 C29.4642857,35.7 28.875,35 27.9910714,35 Z" id="Shape"></path>
                    </g>
                </g>
            </g>
        </g>
    </g>
</svg>