<?xml version="1.0" encoding="UTF-8"?>
<svg width="50px" height="44px" viewBox="0 0 50 44" version="1.1" xmlns="http://www.w3.org/2000/svg" xmlns:xlink="http://www.w3.org/1999/xlink">
    <!-- Generator: Sketch 49.3 (51167) - http://www.bohemiancoding.com/sketch -->
    <title>veggie_picto</title>
    <desc>Created with Sketch.</desc>
    <defs></defs>
    <g id="Page-1" stroke="none" stroke-width="1" fill="none" fill-rule="evenodd">
        <g id="PRODUITS" transform="translate(-979.000000, -121.000000)" fill="#46AE4C" fill-rule="nonzero">
            <g id="MENUE" transform="translate(0.000000, 99.000000)">
                <g id="VEGGIE" transform="translate(959.000000, 0.000000)">
                    <g id="veggie_picto" transform="translate(20.000000, 22.000000)">
                        <path d="M46.71158,13.8308026 C44.448827,10.6175153 39.446952,9.4869142 35.1000844,9.60592484 C36.5887377,7.04719606 36.70783,4.30995133 36.70783,4.19094069 C36.70783,3.6553928 36.4100993,3.17935024 35.8741841,3.00083428 C35.3978151,2.82231832 34.8023538,3.0603396 34.5641692,3.47687684 C34.5641692,3.47687684 32.9564237,5.91659498 30.3363939,5.26203645 C28.9668329,4.90500453 27.5377258,5.20253113 26.1681647,6.15461626 C26.9422644,4.54797261 28.1927332,3.17935024 29.7409326,2.10825447 C30.3363939,1.75122255 30.4554862,1.03715871 30.0982094,0.501610826 C30.0982094,0.501610826 30.0982094,0.501610826 30.0982094,0.501610826 C29.7409326,-0.0339370576 29.026379,-0.152947698 28.4904639,0.204084224 C26.1681647,1.75122255 24.5008731,3.95291941 23.6076811,6.45214286 C22.7740353,5.32154177 21.7022049,4.48846729 20.4517361,4.01242473 C16.0453224,2.1677598 10.9243552,4.96450985 10.6861706,5.08352049 C10.2098016,5.32154177 9.97161706,5.91659498 10.1502555,6.45214286 C10.2693477,6.98769074 10.7457168,7.34472267 11.3411781,7.28521735 C11.3411781,7.28521735 13.8421156,7.22571202 14.9734921,9.24889292 C12.3534623,8.89186099 8.54250991,8.83235567 5.38656496,11.5100951 C0.265597673,15.9134888 -2.94989341,28.3501007 3.95745781,37.1568882 C8.54250991,43.1074202 15.5689534,44 20.1540055,44 C21.4044742,44 22.4763046,43.9404947 23.2504043,43.8809894 L23.9649579,43.821484 C24.4413269,43.821484 25.0963344,43.821484 25.9299802,43.8809894 C30.0982094,44.0595053 37.8987526,44.4165372 43.9129118,38.5255105 C49.8079788,32.7534945 52.6661931,22.3995687 46.71158,13.8308026 Z M25.2154266,12.045643 C25.2154266,12.045643 25.2154266,12.045643 25.2154266,12.045643 C25.2154266,11.9861377 25.2154266,11.9266323 25.2154266,11.8076217 C25.2154266,11.8076217 25.2154266,11.7481164 25.2154266,11.7481164 C25.394065,11.867127 25.5727034,11.9266323 25.7513418,11.9861377 C25.810888,11.9861377 30.3363939,12.5811909 30.7532168,15.199425 C30.9318552,16.508542 31.5273165,17.6986484 32.4205085,18.5912282 C30.7532168,18.7102389 29.1454713,18.2341963 27.7163641,17.3416165 C26.2277109,16.2705207 25.394065,14.5448664 25.2154266,12.045643 Z M29.8600249,7.52323863 C31.1700398,7.88027055 32.4800546,7.76125991 33.7305234,7.22571202 C33.3732466,8.17779715 32.7777853,9.07037696 32.0632317,9.84394612 C31.4677704,9.90345144 30.9318552,10.0224621 30.4554862,10.1414727 C29.9791171,10.2604834 29.5622942,10.3199887 29.2050174,10.4389993 C29.2050174,10.4389993 29.1454713,10.4389993 29.1454713,10.4389993 C27.5972719,9.7844408 26.1681647,9.60592484 26.0490725,9.60592484 C26.0490725,9.60592484 25.9895263,9.60592484 25.9895263,9.60592484 C26.7636261,8.59433439 28.2522793,7.10670138 29.8600249,7.52323863 Z M19.5585442,6.21412158 C20.9876513,6.80917478 22.1190278,8.05878651 22.8335814,9.96295676 C22.8335814,10.2604834 22.7740353,10.6175153 22.8335814,10.9745472 C22.3572123,11.0340525 18.1889832,11.2720738 17.2957912,8.95136631 C16.8789683,7.76125991 16.0453224,6.74966946 14.9734921,6.03560562 C16.5216915,5.55956306 18.129437,5.6785737 19.5585442,6.21412158 Z M42.3051663,36.8593616 C37.0055606,42.0363244 30.1577555,41.7387978 25.9895263,41.5602819 C25.1558805,41.5007765 24.4413269,41.5007765 23.8458656,41.5007765 L23.0717659,41.5602819 C19.3799058,41.7983031 10.8052629,42.333851 5.68429561,35.7287605 C-0.0916791137,28.2905954 2.34971226,17.1631005 6.87521823,13.2952547 C10.0311632,10.55801 14.3184846,11.4505898 16.3430531,11.867127 C16.5812376,11.9266323 16.759876,11.9266323 16.9385144,11.9861377 C18.5462599,13.1167387 20.7494668,13.2952547 22.0594817,13.2952547 C22.4167585,13.2952547 22.7144891,13.2952547 23.0717659,13.2357494 C23.4290427,15.9134888 24.5604192,17.9366697 26.4063493,19.2457867 C28.1331871,20.3763878 30.2173017,20.971441 32.3014163,20.9119357 C33.6709773,20.9119357 35.0405383,20.7334197 36.3505532,20.3763878 C36.7673761,20.2573772 37.0651067,19.9003453 37.184199,19.483808 C37.3032913,18.8292495 36.8864684,18.2341963 36.291007,18.1151856 C36.1719148,18.1151856 33.4327927,17.5201324 33.075516,14.842393 C32.8968776,13.7712973 32.4800546,12.9382228 31.8250472,12.2836643 C36.5887377,11.3315791 42.8410815,12.2241589 44.8656499,15.199425 C50.0461633,22.6970953 47.4856797,31.741904 42.3051663,36.8593616 Z" id="Shape"></path>
                        <path d="M13.6796451,35.4338558 C13.2230083,34.970647 12.3097347,34.8677117 11.6247795,35.1765176 C11.6247795,35.1765176 11.6247795,35.1765176 11.6247795,35.1765176 C10.9398242,35.4853235 10.787612,36.154403 11.3203549,36.5661442 C11.7769917,37.029353 12.6902653,37.1322883 13.3752205,36.8234824 C13.3752205,36.8234824 13.3752205,36.8234824 13.3752205,36.8234824 C14.0601758,36.5146765 14.212388,35.8970647 13.6796451,35.4338558 Z" id="Shape"></path>
                        <path d="M11.4363302,31.2581336 C11.4363302,31.2581336 11.384569,31.2581336 11.4363302,31.2581336 C10.9704796,31.784986 10.8669572,32.6881616 11.1775243,33.3655432 C11.4880913,34.0429249 12.1092255,34.1934542 12.575076,33.7418664 C12.575076,33.7418664 12.575076,33.7418664 12.575076,33.7418664 C13.0409266,33.2902786 13.144449,32.3118384 12.7821208,31.6344568 C12.4715537,30.9570751 11.8504196,30.8065458 11.4363302,31.2581336 Z" id="Shape"></path>
                        <path d="M9.81969778,28.6344568 C9.5096041,27.9570751 8.88941676,27.8065458 8.42427625,28.2581336 C8.42427625,28.2581336 8.42427625,28.2581336 8.42427625,28.2581336 C7.95913575,28.7097214 7.85577119,29.6881616 8.21754714,30.3655432 C8.52764081,31.0429249 9.14782815,31.1934542 9.61296866,30.7418664 C9.61296866,30.7418664 9.61296866,30.7418664 9.61296866,30.7418664 C10.0264269,30.215014 10.1297914,29.2365738 9.81969778,28.6344568 Z" id="Shape"></path>
                        <path d="M8.81969778,32.4338558 C8.5096041,31.970647 7.88941676,31.8677117 7.42427625,32.1765176 C7.42427625,32.1765176 7.42427625,32.1765176 7.42427625,32.1765176 C6.95913575,32.4853235 6.85577119,33.154403 7.21754714,33.5661442 C7.52764081,34.029353 8.14782815,34.1322883 8.61296866,33.8234824 C8.61296866,33.8234824 8.61296866,33.8234824 8.61296866,33.8234824 C9.02642689,33.5146765 9.12979145,32.8970647 8.81969778,32.4338558 Z" id="Shape"></path>
                        <path d="M6.81969778,29.6344568 C6.5096041,28.9570751 5.88941676,28.8065458 5.42427625,29.2581336 C5.42427625,29.2581336 5.42427625,29.2581336 5.42427625,29.2581336 C4.95913575,29.7097214 4.85577119,30.6881616 5.21754714,31.3655432 C5.52764081,32.0429249 6.14782815,32.1934542 6.61296866,31.7418664 C6.61296866,31.7418664 6.61296866,31.7418664 6.61296866,31.7418664 C7.02642689,31.215014 7.12979145,30.2365738 6.81969778,29.6344568 Z" id="Shape"></path>
                    </g>
                </g>
            </g>
        </g>
    </g>
</svg>