<?xml version="1.0" encoding="UTF-8"?>
<svg width="134px" height="105px" viewBox="0 0 134 105" version="1.1" xmlns="http://www.w3.org/2000/svg" xmlns:xlink="http://www.w3.org/1999/xlink">
    <!-- Generator: Sketch 49.3 (51167) - http://www.bohemiancoding.com/sketch -->
    <title>burrito_picto</title>
    <desc>Created with Sketch.</desc>
    <defs></defs>
    <g id="Page-1" stroke="none" stroke-width="1" fill="none" fill-rule="evenodd">
        <g id="ACCUEIL" transform="translate(-653.000000, -1223.000000)" fill="#FFFFFF" fill-rule="nonzero">
            <g id="NOS-PRODUITS" transform="translate(251.000000, 986.000000)">
                <g id="Group-2" transform="translate(0.000000, 192.000000)">
                    <g id="BURRITOS" transform="translate(334.000000, 0.000000)">
                        <g id="burrito_picto" transform="translate(68.400000, 45.599016)">
                            <path d="M101.260645,0 C93.3832258,0 86.3651613,1.99179114 81.0658065,5.97537341 L11.8877419,56.6237766 C11.1716129,57.1928597 10.3122581,57.7619429 9.59612903,58.3310261 L9.45290323,58.4732969 C3.72387097,63.1682332 0,69.8549605 0,77.2530419 C0,91.764663 14.3225806,103.71541 31.9393548,103.71541 C39.5303226,103.71541 46.5483871,101.439077 52.1341935,97.7400364 L53.1367742,97.0286825 C53.28,96.8864117 53.28,96.8864117 53.4232258,96.7441409 L123.603871,45.2421129 C129.619355,40.6894475 133.2,33.5759077 133.2,26.3200971 C133.2,11.808476 118.877419,0 101.260645,0 Z M6.15870968,85.2202064 C5.01290323,82.8016029 4.29677419,80.0984578 4.29677419,77.2530419 C4.29677419,75.9726047 4.44,74.6921676 4.72645161,73.4117304 C5.29935484,73.1271888 5.87225806,72.8426472 6.5883871,72.7003764 L10.5987097,71.7044809 C12.7470968,71.1353977 14.7522581,70.1395021 16.3277419,68.5745234 L19.1922581,65.7291075 C21.1974194,63.7373163 24.3483871,63.0259624 26.9264516,63.8795871 L30.6503226,65.1600243 C32.6554839,65.8713783 34.9470968,65.8713783 37.0954839,65.4445659 L41.1058065,64.4486703 C44.2567742,63.7373163 47.4077419,64.8754827 48.5535484,67.2940862 L49.1264516,68.2899818 C50.2722581,70.5663145 52.2774194,72.2735641 54.9987097,73.1271888 L56.0012903,73.4117304 C58.0064516,74.1230844 59.2954839,75.4035216 59.7251613,77.2530419 C59.7251613,80.0984578 59.0090323,82.8016029 57.8632258,85.2202064 C56.5741935,84.6511233 55.1419355,84.3665817 53.7096774,84.2243109 C52.8503226,84.2243109 52.1341935,84.2243109 51.2748387,84.3665817 C49.2696774,80.667541 45.5458065,78.2489375 41.1058065,77.9643959 C39.3870968,77.8221251 37.8116129,78.1066667 36.236129,78.6757498 C34.0877419,75.6880631 30.6503226,73.8385428 26.9264516,73.5540012 C21.483871,73.2694596 16.7574194,76.5416879 14.8954839,81.378895 C11.3148387,81.6634366 8.30709677,82.9438737 6.15870968,85.2202064 Z M63.8787097,76.9685003 C63.8787097,76.8262295 63.8787097,76.8262295 63.8787097,76.9685003 C63.5922581,63.1682332 50.5587097,51.9288403 34.0877419,50.9329447 C47.4077419,47.0916333 74.763871,41.8276138 116.442581,45.2421129 L62.4464516,84.793394 C63.3058065,82.3747905 63.7354839,79.8139162 63.7354839,77.2530419 C63.8787097,77.1107711 63.8787097,76.9685003 63.8787097,76.9685003 Z M12.3174194,61.6032544 L14.3225806,60.1805464 C19.0490323,57.0505889 25.2077419,55.0587978 31.9393548,55.0587978 C43.8270968,55.0587978 54.1393548,61.176442 57.8632258,69.7126897 C57.5767742,69.5704189 57.4335484,69.5704189 57.1470968,69.4281481 L56.1445161,69.1436066 C54.5690323,68.7167942 53.4232258,67.7208986 52.8503226,66.4404614 L52.2774194,65.4445659 C50.1290323,61.3187128 44.9729032,59.1846509 39.96,60.465088 L35.9496774,61.4609836 C34.5174194,61.7455252 33.0851613,61.7455252 31.796129,61.3187128 L28.0722581,60.0382757 C23.9187097,58.6155677 19.0490323,59.7537341 15.8980645,62.8836916 L13.0335484,65.7291075 C12.0309677,66.725003 10.7419355,67.436357 9.45290323,67.7208986 L6.5883871,68.4322526 C8.02064516,65.8713783 10.0258065,63.5950455 12.3174194,61.6032544 Z M8.59354839,89.0615179 C10.1690323,86.927456 12.7470968,85.6470188 15.4683871,85.7892896 C15.6116129,85.7892896 15.7548387,85.7892896 15.8980645,85.7892896 L17.9032258,86.0738312 L18.3329032,84.2243109 C19.1922581,80.3829994 22.4864516,77.8221251 26.4967742,77.9643959 C29.3612903,78.1066667 31.9393548,79.8139162 33.2283871,82.5170613 L34.2309677,84.6511233 L36.236129,83.5129569 C37.5251613,82.8016029 39.1006452,82.3747905 40.676129,82.5170613 C43.9703226,82.6593321 46.6916129,84.793394 47.6941935,87.7810808 L48.4103226,89.7728719 L50.4154839,89.2037887 C51.4180645,88.9192471 52.2774194,88.7769763 53.28,88.7769763 C53.996129,88.7769763 54.7122581,88.9192471 55.4283871,89.2037887 C50.4154839,95.1791621 41.8219355,99.447286 31.9393548,99.447286 C22.0567742,99.447286 13.4632258,95.3214329 8.59354839,89.0615179 Z M121.59871,41.4008015 C75.9096774,36.9904068 46.4051613,42.8235094 32.5122581,46.9493625 L83.643871,9.2476017 C88.2270968,5.83310261 94.3858065,4.12585307 101.260645,4.12585307 C116.442581,4.26812386 128.903226,14.0848087 128.903226,26.3200971 C128.903226,32.010929 126.181935,37.55949 121.59871,41.4008015 Z" id="Shape"></path>
                            <ellipse id="Oval" cx="70.2" cy="70.6337705" rx="2.7" ry="2.68229508"></ellipse>
                            <ellipse id="Oval" cx="74.7" cy="63.4809836" rx="2.7" ry="2.68229508"></ellipse>
                            <ellipse id="Oval" cx="63.9" cy="34.8698361" rx="2.7" ry="2.68229508"></ellipse>
                            <ellipse id="Oval" cx="88.2" cy="33.0816393" rx="2.7" ry="2.68229508"></ellipse>
                            <ellipse id="Oval" cx="110.7" cy="14.3055738" rx="2.7" ry="2.68229508"></ellipse>
                            <ellipse id="Oval" cx="119.7" cy="34.8698361" rx="2.7" ry="2.68229508"></ellipse>
                            <ellipse id="Oval" cx="109.8" cy="27.7170492" rx="2.7" ry="2.68229508"></ellipse>
                            <ellipse id="Oval" cx="119.7" cy="23.2465574" rx="2.7" ry="2.68229508"></ellipse>
                            <ellipse id="Oval" cx="75.6" cy="33.0816393" rx="2.7" ry="2.68229508"></ellipse>
                            <ellipse id="Oval" cx="66.6" cy="61.6927869" rx="2.7" ry="2.68229508"></ellipse>
                            <path d="M10.3024569,75.9366303 L8.01972544,75.1812599 C6.94549888,74.8791118 5.87127232,75.4834081 5.46843736,76.6920006 C5.19988072,77.9005932 5.736994,79.1091858 6.81122056,79.562408 L9.093952,80.3177784 C9.22823032,80.3177784 9.49678696,80.4688525 9.63106528,80.4688525 C10.5710135,80.4688525 11.3766834,79.8645562 11.5109618,78.8070377 C12.048075,77.5984451 11.3766834,76.2387784 10.3024569,75.9366303 Z" id="Shape"></path>
                            <path d="M45.5722066,76.8233196 C45.9814711,77.5113466 46.6635785,77.7865574 47.345686,77.7865574 C47.7549504,77.7865574 48.0277934,77.648952 48.4370579,77.5113466 C49.3920083,76.960925 49.8012728,75.7224765 49.2555868,74.7592388 L48.0277934,72.5575525 C47.4821075,71.5943147 46.254314,71.1814986 45.1629421,71.8695255 C44.2079917,72.4199471 43.7987272,73.6583956 44.3444132,74.6216334 L45.5722066,76.8233196 Z" id="Shape"></path>
                            <path d="M30.0023208,71.2669998 L32.1973266,72.2775963 C32.4717023,72.4219672 32.7460781,72.4219672 33.0204538,72.4219672 C33.8435809,72.4219672 34.5295202,71.9888544 34.9410838,71.1226289 C35.3526474,69.9676615 34.9410838,68.8126941 33.9807688,68.2352104 L31.785763,67.224614 C30.6882601,66.7915012 29.4535694,67.224614 29.0420058,68.2352104 C28.4932544,69.5345487 28.904818,70.8338871 30.0023208,71.2669998 Z" id="Shape"></path>
                            <path d="M16.9347458,75.5417998 L18.9279661,73.8677433 C19.9245763,73.1068085 20.0669492,71.7371259 19.3550847,70.6718172 C18.6432203,69.6065085 17.2194915,69.4543216 16.3652542,70.2152564 L14.3720339,71.8893129 C13.3754237,72.6502476 13.2330508,74.0199302 13.9449153,75.0852389 C14.3720339,75.6939867 14.9415254,75.9983607 15.6533898,75.9983607 C16.0805085,75.9983607 16.5076271,75.8461737 16.9347458,75.5417998 Z" id="Shape"></path>
                            <path d="M21.9894253,70.3329847 C22.2715403,71.1295741 23.1178851,71.5278689 23.9642299,71.5278689 C24.2463448,71.5278689 24.5284597,71.5278689 24.8105747,71.3951039 C25.9390344,70.9968092 26.3622068,69.801925 25.9390344,68.7398057 L24.8105747,66.4828023 C24.3874023,65.420683 23.1178851,65.0223882 21.9894253,65.420683 C20.8609656,65.8189777 20.4377932,67.0138619 20.8609656,68.0759812 L21.9894253,70.3329847 Z" id="Shape"></path>
                            <path d="M38.0804549,74.8332803 C38.3834618,74.9687713 38.8379722,75.1042623 39.1409792,75.1042623 C39.8984965,75.1042623 40.8075173,74.6977893 41.1105243,74.0203343 L42.9285659,70.9040414 C43.5345798,69.9556044 43.0800694,68.7361855 42.0195451,68.1942215 C40.9590208,67.6522575 39.5954896,68.0587305 38.9894757,69.0071675 L37.1714341,71.9879694 C36.5654202,73.0718974 37.0199306,74.2913163 38.0804549,74.8332803 Z" id="Shape"></path>
                            <path d="M52.6211765,79.6120957 C52.7566449,80.689545 53.5694554,81.3629508 54.6532026,81.3629508 C54.788671,81.3629508 54.788671,81.3629508 54.9241394,81.3629508 C56.0078867,81.2282697 56.8206971,80.2855015 56.6852287,79.0733711 L56.2788235,75.9757044 C56.1433551,74.8982552 55.1950762,74.0901682 53.9758606,74.2248494 C52.8921133,74.3595305 52.0793029,75.3022986 52.2147713,76.5144291 L52.6211765,79.6120957 Z" id="Shape"></path>
                        </g>
                    </g>
                </g>
            </g>
        </g>
    </g>
</svg>