<?xml version="1.0" encoding="UTF-8"?>
<svg width="67px" height="111px" viewBox="0 0 67 111" version="1.1" xmlns="http://www.w3.org/2000/svg" xmlns:xlink="http://www.w3.org/1999/xlink">
    <!-- Generator: Sketch 49.3 (51167) - http://www.bohemiancoding.com/sketch -->
    <title>boissons_picto</title>
    <desc>Created with Sketch.</desc>
    <defs></defs>
    <g id="Page-1" stroke="none" stroke-width="1" fill="none" fill-rule="evenodd">
        <g id="ACCUEIL" transform="translate(-1021.000000, -1554.000000)" fill="#FFFFFF" fill-rule="nonzero">
            <g id="NOS-PRODUITS" transform="translate(251.000000, 986.000000)">
                <g id="Group-2" transform="translate(0.000000, 192.000000)">
                    <g id="BOISSONS" transform="translate(668.000000, 332.803279)">
                        <g id="boissons_picto" transform="translate(102.600000, 43.810820)">
                            <path d="M30.7551192,101.21927 C30.7551192,101.21927 30.7551192,101.21927 30.7551192,101.21927 C31.6470417,100.175212 31.758532,98.6091243 30.9780998,97.4345586 C30.0861773,96.3905002 28.7482936,96.2599929 27.7448808,97.173544 C26.8529583,98.2176024 26.741468,99.7836899 27.5219002,100.958256 C28.3023323,102.132821 29.7517064,102.263329 30.7551192,101.21927 Z" id="Shape"></path>
                            <path d="M21.6136614,93.36185 C21.6136614,93.36185 21.6136614,93.36185 21.6136614,93.36185 C22.6749659,92.4757762 22.807629,91.1466654 21.8789876,90.1498324 C20.9503461,89.2637586 19.2257264,89.1529993 18.0317588,89.9283139 C16.8377913,90.7036285 16.8377913,92.1434985 17.7664327,93.1403316 C18.8277372,94.0264054 20.552357,94.1371646 21.6136614,93.36185 Z" id="Shape"></path>
                            <path d="M19.6448808,98.1646642 C18.7529583,99.2087226 18.641468,100.77481 19.4219002,101.949376 C20.3138227,102.993434 21.6517064,103.123942 22.6551192,102.21039 C22.6551192,102.21039 22.6551192,102.21039 22.6551192,102.21039 C23.5470417,101.166332 23.658532,99.6002445 22.8780998,98.4256788 C21.9861773,97.2511132 20.5368033,97.1206059 19.6448808,98.1646642 Z" id="Shape"></path>
                            <path d="M63.3811765,23.0431052 L45.3458824,23.0431052 L45.3458824,16.9067998 L58.4858824,3.8671508 C59.3876471,2.97227293 59.3876471,1.56603627 58.4858824,0.671158403 C57.5841176,-0.223719468 56.1670588,-0.223719468 55.2652941,0.671158403 L41.4811765,14.3500059 C41.0947059,14.7335249 40.8370588,15.3727234 40.8370588,15.8840822 L40.8370588,23.0431052 L2.31882353,23.0431052 C2.31882353,23.0431052 2.31882353,23.0431052 2.31882353,23.0431052 C1.03058824,23.0431052 0,24.0658227 0,25.3442197 L0,33.6537999 C0,33.6537999 0,33.6537999 0,33.6537999 C0,34.9321969 1.03058824,35.9549145 2.31882353,35.8270748 L3.99352941,35.8270748 L11.8517647,107.928663 C11.9805882,109.07922 12.8823529,109.974098 14.0417647,109.974098 L51.6582353,109.974098 C52.8176471,109.974098 53.8482353,109.07922 53.9770588,107.928663 L61.8352941,35.8270748 L63.3811765,35.8270748 C63.3811765,35.8270748 63.3811765,35.8270748 63.3811765,35.8270748 C64.6694118,35.8270748 65.7,34.8043572 65.7,33.5259602 L65.7,25.21638 C65.7,25.21638 65.7,25.21638 65.7,25.21638 C65.7,23.937983 64.6694118,23.0431052 63.3811765,23.0431052 Z M4.50882353,27.5174945 L43.0270588,27.5174945 C43.0270588,27.5174945 43.0270588,27.5174945 43.0270588,27.5174945 L61.0623529,27.5174945 L61.0623529,31.3526854 L6.31235294,31.3526854 C6.18352941,31.3526854 6.05470588,31.3526854 5.92588235,31.3526854 L4.50882353,31.3526854 L4.50882353,27.5174945 Z M49.7258824,105.371869 L16.1029412,105.371869 L8.63117647,35.8270748 L57.3264706,35.8270748 L49.7258824,105.371869 Z" id="Shape"></path>
                        </g>
                    </g>
                </g>
            </g>
        </g>
    </g>
</svg>