<?xml version="1.0" encoding="UTF-8"?>
<svg width="122px" height="113px" viewBox="0 0 122 113" version="1.1" xmlns="http://www.w3.org/2000/svg" xmlns:xlink="http://www.w3.org/1999/xlink">
    <!-- Generator: Sketch 49.3 (51167) - http://www.bohemiancoding.com/sketch -->
    <title>nachos_picto</title>
    <desc>Created with Sketch.</desc>
    <defs></defs>
    <g id="Page-1" stroke="none" stroke-width="1" fill="none" fill-rule="evenodd">
        <g id="ACCUEIL" transform="translate(-325.000000, -1554.000000)" fill="#FFFFFF">
            <g id="NOS-PRODUITS" transform="translate(251.000000, 986.000000)">
                <g id="Group-2" transform="translate(0.000000, 192.000000)">
                    <g id="NACHOS" transform="translate(0.000000, 332.803279)">
                        <g id="nachos_picto" transform="translate(74.700000, 43.810820)">
                            <path d="M120.266665,21.2536025 C119.846564,20.538005 119.094505,20.0743992 118.258709,20.0158018 L75.2576268,17.2866749 L79.3369958,3.14890258 C79.5666603,2.35405632 79.3785161,1.49850362 78.8356616,0.869173379 C78.2928072,0.23984314 77.4671328,-0.0799223131 76.635547,0.017117581 L2.21123674,8.80102883 C1.3161733,8.90732291 0.548251058,9.48068645 0.201069132,10.3019058 C-0.146112793,11.1231252 -0.0188646726,12.0652034 0.53416282,12.7679565 L26.672342,45.9350509 L1.57817911,55.7778038 C0.740120465,56.1041247 0.145633313,56.8513696 0.0231818603,57.7323687 C-0.0992695925,58.6133678 0.269368216,59.4910368 0.987426042,60.0280834 L69.2035411,111.255138 C69.6351859,111.586839 70.1673942,111.765448 70.7144185,111.762189 C72.0799962,111.774617 73.1983245,110.694105 73.2149206,109.346241 L73.739195,81.0259562 L80.5698718,94.0154073 C80.9999653,94.8327582 81.8562539,95.3448311 82.7893507,95.3426876 L82.8120139,95.3426876 C83.7555042,95.3388568 84.6151264,94.8071003 85.0299819,93.9706675 L120.339187,23.5800714 C120.71106,22.8414869 120.683838,21.9682228 120.266665,21.2536025 Z M7.19562132,13.1855278 L73.492922,5.3709786 L70.1523721,16.9734964 L43.45819,15.2733845 C42.5571889,15.2192942 41.6962421,15.6472819 41.2038602,16.3940406 C40.7114783,17.1407994 40.6636244,18.0911217 41.0785581,18.8823939 L50.4036935,36.6291755 L31.5177258,44.0261534 L7.19562132,13.1855278 Z M7.54161224,58.7455429 L69.5993909,34.4070995 L68.3060799,104.380124 L7.54161224,58.7455429 Z M82.7394918,87.4088323 L73.9310765,70.6612392 L74.6683846,30.7831769 C74.6809115,29.9583587 74.2771339,29.1813767 73.591129,28.7102335 C72.9015811,28.2461152 72.025111,28.1457782 71.2462473,28.4417947 L55.079859,34.7948443 L47.5632439,20.4930262 L114.192938,24.7134793 L82.7394918,87.4088323 Z M57.7027422,50.9160804 C57.7126836,49.3917301 56.469569,48.1476566 54.9252443,48.1364401 C53.3809196,48.1252235 52.1193921,49.3511055 52.1066062,50.8754352 C52.0938203,52.3997649 53.3346112,53.6460963 54.8789123,53.6601206 C55.6224965,53.6664753 56.3381589,53.3808889 56.8683459,52.8662335 C57.398533,52.3515781 57.6997788,51.6500461 57.705764,50.9160804 L57.7027422,50.9160804 Z M58.7799978,79.877635 C57.6458217,79.8656014 56.616113,80.5295092 56.1714986,81.5594727 C55.7268842,82.5894363 55.9550308,83.7823728 56.7494487,84.581467 C57.5438667,85.3805613 58.7479168,85.628252 59.7995964,85.2089271 C60.8512761,84.7896023 61.5432206,83.785942 61.5524579,82.666415 C61.5601092,81.9340322 61.2725723,81.2286704 60.7531509,80.7056214 C60.2337294,80.1825724 59.5250086,79.8847185 58.7830196,79.877635 L58.7799978,79.877635 Z M32.8442762,21.1342964 C31.3016388,21.1220395 30.0406212,22.3457202 30.0267669,23.8683834 C30.0129126,25.3910465 31.2514607,26.6368853 32.7940723,26.6519784 C34.336684,26.6670715 35.6000086,25.4457114 35.6167363,23.9230764 C35.6247904,23.1905763 35.3373847,22.4849854 34.8178771,21.9618495 C34.2983694,21.4387137 33.5894139,21.1409848 32.847298,21.1342964 L32.8442762,21.1342964 Z M85.2868311,64.2783631 C86.8335811,64.2946849 88.1012774,63.0710254 88.1192797,61.5443069 C88.137282,60.0175884 86.8987829,58.765137 85.3520669,58.7459201 C83.805351,58.7267032 82.5353063,59.9479878 82.514371,61.4746698 C82.5051016,62.2099414 82.7924638,62.9186659 83.3131074,63.4446015 C83.8337509,63.9705371 84.5449268,64.2705005 85.2898528,64.2783631 L85.2868311,64.2783631 Z M32.8185913,60.0429967 C31.158376,60.0411887 29.6607592,61.0273439 29.0248587,62.541105 C28.3889583,64.0548661 28.7401778,65.7977097 29.914561,66.9560411 C31.0889441,68.1143726 32.854895,68.4597614 34.3880319,67.8309731 C35.9211688,67.2021848 36.9191473,65.7232205 36.9160908,64.0844907 C36.9164918,63.0124985 36.4852393,61.9842988 35.7172889,61.2262858 C34.9493384,60.4682728 33.9076589,60.0426009 32.821613,60.0429967 L32.8185913,60.0429967 Z M100.123647,35.8089461 C102.388741,35.8114128 104.227144,34.0012446 104.230201,31.7654624 C104.233258,29.5296803 102.399812,27.7146206 100.134719,27.7110525 C97.869627,27.7074844 96.0303205,29.5167585 96.0261477,31.7525389 C96.0249449,32.8271786 96.4562873,33.8582754 97.2252844,34.6189995 C97.9942814,35.3797236 99.0379408,35.8077602 100.126669,35.8089461 L100.123647,35.8089461 Z" id="Icon:_Nachos"></path>
                        </g>
                    </g>
                </g>
            </g>
        </g>
    </g>
</svg>