<?xml version="1.0" encoding="UTF-8"?>
<svg width="163px" height="87px" viewBox="0 0 163 87" version="1.1" xmlns="http://www.w3.org/2000/svg" xmlns:xlink="http://www.w3.org/1999/xlink">
    <!-- Generator: Sketch 49.3 (51167) - http://www.bohemiancoding.com/sketch -->
    <title>quesadillas_picto</title>
    <desc>Created with Sketch.</desc>
    <defs></defs>
    <g id="Page-1" stroke="none" stroke-width="1" fill="none" fill-rule="evenodd">
        <g id="ACCUEIL" transform="translate(-973.000000, -1237.000000)" fill="#FFFFFF">
            <g id="NOS-PRODUITS" transform="translate(251.000000, 986.000000)">
                <g id="Group-2" transform="translate(0.000000, 192.000000)">
                    <g id="QUESADILLAS" transform="translate(668.000000, 0.000000)">
                        <g id="quesadillas_picto" transform="translate(54.000000, 59.010492)">
                            <path d="M155.050548,30.3968986 C145.802956,16.1801119 129.472478,5.41712081 109.062606,0.0838177844 C107.905453,-0.219987444 106.69238,0.322146146 106.151058,1.38501521 L105.094513,3.47335676 C93.5805904,8.74240312 76.4032632,13.8026153 58.1887474,4.24443671 L56.737006,1.38501521 C56.1968569,0.325269348 54.9881811,-0.21639937 53.8335231,0.0838177844 C33.4252648,5.41712081 17.0931737,16.1801119 7.84719388,30.3968986 C-1.5471862,44.8546477 -2.53920951,61.063391 5.04694597,76.0673218 C5.05142291,76.0777693 5.05519506,76.0885026 5.05823729,76.0994501 L5.07759385,76.1476426 L9.53605307,85.3202813 C10.1009673,86.387712 11.3214933,86.9369081 12.4992186,86.653607 L27.966717,82.3805389 C30.9442373,83.3086887 34.113397,83.4471156 37.1610794,82.7821431 C40.5274687,82.1121606 43.570459,80.3358456 45.802167,77.737995 C50.5477484,76.0191293 54.2400107,78.5412033 60.8793082,76.7741451 C63.5114583,75.995166 65.7985825,74.3463656 67.3637532,72.0994729 L81.4585495,68.3565222 L106.588194,74.9107019 C109.853511,78.1868565 114.150388,80.245645 118.758626,80.741994 C121.679336,80.9868044 124.619901,80.8354897 127.499722,80.2921974 L150.404976,86.6054145 C151.593589,86.9726225 152.870775,86.4010428 153.384272,85.2720888 L157.783048,76.2118993 C157.794551,76.187383 157.811028,76.1655047 157.83144,76.1476426 C165.440178,61.1115835 164.457833,44.8707119 155.050548,30.3968986 Z M154.164986,72.0512804 L90.2657808,55.3766763 L151.819617,34.7824158 C158.849532,46.0206312 159.730961,60.0268947 154.164986,72.0512804 Z M100.784454,68.1958806 L83.9797404,63.8103633 L83.9797404,58.9268569 L90.3173983,60.581466 C95.1533102,61.8505351 98.0325974,64.8384699 100.784454,68.1958806 Z M78.9083237,59.2481402 L78.9083237,63.8264275 L71.6496165,65.7541274 C73.4477206,62.9833582 75.95274,60.7381066 78.9083237,59.2481402 Z M148.914521,30.4450911 L86.48964,51.3285065 L109.75299,5.48137748 C126.696425,10.284563 140.420221,19.0395334 148.911295,30.4450911 L148.914521,30.4450911 Z M79.7987251,14.3648611 C87.2550918,14.3110132 94.642756,12.9403915 101.618399,10.3166914 L98.7342724,16.003406 C91.7707527,19.3126242 82.4102466,17.4652451 86.9590364,20.3889233 C94.7016574,25.3688147 84.3604193,27.4250279 83.4619526,29.0957011 C82.7360819,30.4290269 87.959125,30.5093477 91.780431,29.7061394 L81.4456451,50.0755016 L77.5582042,42.4128945 C79.7567859,42.364702 82.3134639,42.2843812 82.074733,40.8225421 C81.7263151,38.6378156 74.0562812,37.8506715 78.3276271,35.7462658 C82.3441117,33.7703734 76.641994,33.3045126 70.7059846,28.9189953 L68.2460894,24.0676173 C73.6465675,25.8989321 80.3439346,26.172023 80.5052393,24.3889006 C80.8278485,20.8387199 68.4573985,16.9833202 72.7739096,14.9752994 C73.3117832,14.7576219 73.8132656,14.4597024 74.2611381,14.0917703 C76.1000871,14.2761296 77.9472574,14.3672775 79.795499,14.3648611 L79.7987251,14.3648611 Z M53.1431394,5.48137748 L76.4064893,51.3285065 L13.9816079,30.4450911 C22.4678431,19.0395334 36.1916387,10.284563 53.1399134,5.48137748 L53.1431394,5.48137748 Z M11.0732859,34.7824158 L72.6255094,55.3766763 L8.72791701,72.0512804 C3.1609748,60.0274281 4.04119009,46.0211839 11.0700598,34.7824158 L11.0732859,34.7824158 Z M11.0426381,76.8384017 C16.8076646,75.9548726 19.6288821,77.1757492 22.0678077,78.79823 L13.1815371,81.2399832 L11.0426381,76.8384017 Z M36.0642081,77.8825725 C29.5571804,79.6978233 25.0438776,74.1235577 23.0566049,73.5131194 L47.6216829,67.1035173 C45.8053931,68.7741905 43.2567803,75.8584876 36.060982,77.8825725 L36.0642081,77.8825725 Z M59.7050107,71.8745745 C55.651426,73.1275795 52.0833682,71.8745745 50.0880303,72.0834087 C52.8027867,68.5010997 56.3321314,65.0151758 64.5925402,62.6698076 L68.3767462,61.6738293 C66.7217609,63.3445025 63.1472509,70.8143396 59.7017846,71.8745745 L59.7050107,71.8745745 Z M119.387714,75.7621026 C111.790267,74.6697394 105.794575,66.2521165 103.987963,64.1477108 L136.694085,72.693847 C135.374613,73.079387 125.251136,76.5974393 119.376422,75.7621026 L119.387714,75.7621026 Z M149.712979,81.1757265 L137.303816,77.7540592 C142.047784,76.3886051 146.477209,75.2480493 149.740401,76.0994501 L151.905109,76.6616959 L149.712979,81.1757265 Z M45.6327971,22.3648157 C47.6217148,22.3515169 49.2240722,20.7365963 49.2137015,18.7558351 C49.2033308,16.7750739 47.5841505,15.1768819 45.5952017,15.1842393 C43.6062529,15.1915966 41.9990388,16.8017235 42.0034436,18.7825067 C42.0132208,20.7694704 43.6376258,22.3728194 45.6327971,22.3648157 Z M105.413896,38.4129173 C107.407515,38.4049401 109.017924,36.7903783 109.012589,34.8049444 C109.007254,32.8195104 107.388192,31.2135549 105.394559,31.2162033 C103.400926,31.2188517 101.786172,32.8291031 101.786156,34.8145441 C101.787437,35.7707281 102.170298,36.6871947 102.850423,37.3621132 C103.530547,38.0370316 104.452155,38.4150496 105.412283,38.4129173 L105.413896,38.4129173 Z M141.671945,56.0513713 C139.678541,56.0602339 138.068942,57.6751837 138.074868,59.660406 C138.080794,61.6456284 139.700006,63.2510187 141.693428,63.2480777 C143.68685,63.2451367 145.301278,61.6349755 145.301298,59.6497444 C145.300019,58.692723 144.916494,57.7755235 144.235322,57.1004661 C143.55415,56.4254087 142.631297,56.0479571 141.670332,56.0513713 L141.671945,56.0513713 Z M32.9526423,55.537318 C34.9462609,55.5293407 36.5566698,53.914779 36.551335,51.929345 C36.5460003,49.9439111 34.9269381,48.3379556 32.9333052,48.3406039 C30.9396723,48.3432523 29.3249179,49.9535038 29.3249018,51.9389448 C29.3261829,52.8954078 29.7092655,53.8121185 30.3897388,54.4870833 C31.0702122,55.162048 31.9922347,55.5398773 32.9526423,55.537318 Z M51.6801067,34.8145441 C53.0711182,34.8056851 54.1928069,33.6778458 54.1883674,32.2925299 C54.1839278,30.9072141 53.0550332,29.7865281 51.6639932,29.7865117 C50.2729532,29.7864952 49.1440319,30.9071543 49.1395592,32.2924701 C49.1395558,32.9627597 49.407477,33.6054794 49.8841553,34.0786915 C50.3608336,34.5519037 51.0070543,34.8166788 51.6801067,34.8145441 Z M16.64636,49.9469883 C18.037588,49.9390132 19.1600863,48.8115599 19.1562369,47.426032 C19.1523876,46.0405041 18.0236418,44.9192541 16.6323907,44.9189461 C15.2411397,44.9186381 14.1118935,46.0393882 14.1074255,47.4249143 C14.1078525,48.0947934 14.3756898,48.7370198 14.8519255,49.2100929 C15.3281612,49.683166 15.9737175,49.9482676 16.64636,49.9469883 Z M147.83862,43.8907978 C146.440814,43.8943445 145.310221,45.0250811 145.312593,46.4171447 C145.314966,47.8092082 146.449407,48.936116 147.847217,48.9349367 C149.245027,48.9337575 150.37755,47.8049374 150.377554,46.4128718 C150.377556,45.7428614 150.109856,45.1003863 149.633528,44.6272205 C149.157199,44.1540547 148.511393,43.8890908 147.83862,43.8907978 Z M113.564618,53.1437573 C112.166812,53.1473039 111.036219,54.2780406 111.038591,55.6701042 C111.040964,57.0621677 112.175405,58.1890754 113.573215,58.1878962 C114.971025,58.186717 116.103548,57.0578969 116.103552,55.6658313 C116.097346,54.2729894 114.963219,53.1463932 113.564618,53.1437573 Z M112.896817,17.6901434 C114.289927,17.6812712 115.412468,16.5501684 115.405055,15.1627748 C115.397641,13.7753812 114.263076,12.6562401 112.86995,12.6621337 C111.476824,12.6680273 110.351847,13.7967274 110.356269,15.1841336 C110.363379,16.5746395 111.500568,17.6963692 112.896817,17.6901434 Z M128.585302,27.4089637 C129.983108,27.4054171 131.113701,26.2746804 131.111329,24.8826168 C131.108956,23.4905533 129.974515,22.3636456 128.576705,22.3648248 C127.178895,22.366004 126.046372,23.4948241 126.046368,24.8868897 C126.04679,25.5578858 126.315513,26.2010904 126.793146,26.6743491 C127.270779,27.1476078 127.917996,27.4119537 128.591754,27.4089637 L128.585302,27.4089637 Z M132.148521,47.4249143 C130.750715,47.4284609 129.620122,48.5591976 129.622495,49.9512611 C129.624867,51.3433247 130.759308,52.4702324 132.157118,52.4690532 C133.554928,52.467874 134.687451,51.3390538 134.687455,49.9469883 C134.687455,49.2780927 134.420641,48.6365933 133.945709,48.1636126 C133.470776,47.690632 132.826629,47.4249143 132.154973,47.4249143 L132.148521,47.4249143 Z M15.805963,62.7340642 C15.8026983,63.7582674 16.4197833,64.6834001 17.3690561,65.0774506 C18.3183289,65.471501 19.412511,65.2567284 20.1406491,64.5334257 C20.8687871,63.810123 21.0872296,62.7209879 20.6939697,61.7746169 C20.3007098,60.828246 19.3733324,60.2113451 18.3448974,60.2119902 C17.6729788,60.2111361 17.0283337,60.4765796 16.5532151,60.9497455 C16.0780965,61.4229114 15.8115576,62.0649071 15.8124152,62.7340642 L15.805963,62.7340642 Z M49.2524724,56.9830929 C50.6500652,56.9786602 51.7798487,55.8475339 51.7768838,54.4556812 C51.7739188,53.0638284 50.6393264,51.9374862 49.2417273,51.938959 C47.8441282,51.9404319 46.711932,53.069163 46.7119249,54.4610189 C46.7119138,55.132427 46.9807201,55.7761272 47.4587971,56.2495256 C47.9368741,56.722924 48.5847567,56.9869417 49.2589246,56.9830929 L49.2524724,56.9830929 Z M29.6281544,30.6699894 C31.0214814,30.6620024 32.1448338,29.5312855 32.138011,28.1436786 C32.1311882,26.7560717 30.9967706,25.6363651 29.6034319,25.6419676 C28.2100932,25.6475702 27.0847915,26.776363 27.08922,28.1639795 C27.0926316,28.8325856 27.362829,29.4724083 27.8402774,29.9424706 C28.3177258,30.412533 28.9632463,30.6742621 29.6346066,30.6699894 L29.6281544,30.6699894 Z" id="Icon:_Quesadilla"></path>
                        </g>
                    </g>
                </g>
            </g>
        </g>
    </g>
</svg>