<?xml version="1.0" encoding="UTF-8"?>
<svg width="114px" height="114px" viewBox="0 0 114 114" version="1.1" xmlns="http://www.w3.org/2000/svg" xmlns:xlink="http://www.w3.org/1999/xlink">
    <!-- Generator: Sketch 49.3 (51167) - http://www.bohemiancoding.com/sketch -->
    <title>tacos_picto</title>
    <desc>Created with Sketch.</desc>
    <defs></defs>
    <g id="Page-1" stroke="none" stroke-width="1" fill="none" fill-rule="evenodd">
        <g id="ACCUEIL" transform="translate(-329.000000, -1222.000000)" fill="#FFFFFF" fill-rule="nonzero">
            <g id="NOS-PRODUITS" transform="translate(251.000000, 986.000000)">
                <g id="Group-2" transform="translate(0.000000, 192.000000)">
                    <g id="TACOS">
                        <g id="tacos_picto" transform="translate(78.300000, 44.704918)">
                            <path d="M39.15,79.5747541 C37.4318182,79.5747541 36,80.9971833 36,82.7040984 C36,82.7040984 36,82.7040984 36,82.7040984 C36,84.4110134 37.4318182,85.8334426 39.15,85.8334426 C39.15,85.8334426 39.15,85.8334426 39.15,85.8334426 C40.8681818,85.8334426 42.3,84.4110134 42.3,82.7040984 C42.3,80.9971833 40.8681818,79.5747541 39.15,79.5747541 Z" id="Shape"></path>
                            <path d="M31.05,56.3281967 C29.85,56.3281967 28.8,57.2222951 28.8,58.5634426 C28.8,58.5634426 28.8,58.5634426 28.8,58.5634426 C28.8,59.7555738 29.7,60.7986885 31.05,60.7986885 C32.25,60.7986885 33.3,59.9045902 33.3,58.5634426 C33.3,57.3713115 32.4,56.3281967 31.05,56.3281967 Z" id="Shape"></path>
                            <path d="M42.75,34.8698361 C41.0318182,34.8698361 39.6,36.2922653 39.6,37.9991803 C39.6,37.9991803 39.6,37.9991803 39.6,37.9991803 C39.6,39.7060954 41.0318182,41.1285246 42.75,41.1285246 C44.4681818,41.1285246 45.9,39.7060954 45.9,37.9991803 C45.9,36.2922653 44.4681818,35.012079 42.75,34.8698361 Z" id="Shape"></path>
                            <path d="M94.05,35.7639344 C92.85,35.7639344 91.8,36.6580328 91.8,37.9991803 C91.8,37.9991803 91.8,37.9991803 91.8,37.9991803 C91.8,39.1913115 92.7,40.2344262 94.05,40.2344262 C94.05,40.2344262 94.05,40.2344262 94.05,40.2344262 C95.25,40.2344262 96.3,39.3403279 96.3,37.9991803 C96.3,36.8070492 95.25,35.7639344 94.05,35.7639344 Z" id="Shape"></path>
                            <path d="M111.695315,32.6536559 C111.553258,32.5130705 111.411201,32.3724851 111.269144,32.2318997 C106.439204,25.9055562 100.472807,21.1256522 93.9381822,17.7516024 C92.8017257,17.1892607 91.381155,14.2369671 90.9549838,11.4252589 C90.5288126,9.73823397 89.9605844,8.19179446 88.9661849,6.92652576 C85.4147583,2.00603639 78.4539622,0.881353101 73.4819649,4.39598837 L73.3399079,4.53657378 C73.1978508,4.67715919 72.9137367,4.95833001 72.7716796,5.09891542 C70.0725954,7.06711117 66.2370546,6.50476953 64.2482557,3.83364672 C62.1173998,0.881353101 58.4239161,-0.524501006 54.7304324,0.178426047 C50.6107776,0.881353101 47.201408,3.69306131 45.9228944,7.62945281 C45.7808374,7.91062363 45.7808374,8.05120905 45.6387803,8.33237987 C44.2182097,11.4252589 40.524726,12.6905276 37.5415276,11.1440881 C34.1321581,9.45706315 30.0125032,9.87881938 26.8872478,12.2687714 C23.7619924,14.5181379 22.1993647,18.4545294 22.90965,22.2503355 C23.1937641,23.9373605 22.767593,25.7649708 21.6311364,27.1708249 C20.4946799,28.576679 18.9320522,29.2796061 17.0853104,29.4201915 C13.2497696,29.5607769 9.8404001,31.8101435 8.13571533,35.3247787 C6.43103056,38.839414 6.85720175,42.9163909 9.13011478,46.0092699 C10.1245142,47.415124 10.5506854,49.2427344 10.2665713,50.9297593 C9.98245716,52.6167842 8.84600065,54.1632238 7.28337294,55.0067362 C5.57868817,55.9908341 4.01606046,57.5372736 3.16371808,59.3648839 C2.59548982,60.4895672 2.31137569,61.6142505 2.16931863,62.7389338 C-2.5185645,78.6250852 0.464633854,95.6359199 10.4086284,108.991534 C12.2553702,111.381486 15.2385685,112.78734 18.363824,112.646755 C21.6311364,112.646755 24.8984489,111.522071 27.4554761,109.41329 L107.149489,49.6644906 C109.848573,47.6962949 111.979429,44.8845866 112.973829,41.6511222 C113.826171,38.4176578 113.4,35.1841933 111.695315,32.6536559 Z M28.8760467,100.134653 C28.1657614,102.38402 26.7451908,104.352215 24.7563919,105.758069 C20.7787941,108.710363 15.6647397,108.850949 13.5338838,106.179826 C5.8628023,95.9170907 2.73754688,83.1238184 4.44223166,70.6117168 C5.43663111,71.5958147 6.43103056,72.4393271 7.70954414,73.0016688 C9.13011478,73.7045958 10.1245142,74.6886937 10.8347996,75.9539624 C10.8347996,76.0945478 10.9768566,76.0945478 10.8347996,76.0945478 C11.2609707,77.7815727 11.9712561,79.4685977 13.1077126,80.8744518 C13.2497696,81.1556226 13.5338838,81.296208 13.8179979,81.5773788 C12.3974273,84.1079162 12.3974273,87.0602099 13.6759408,89.5907472 C11.2609707,93.5271387 11.4030278,98.4476281 14.2441691,102.102849 C15.3806256,103.649288 17.0853104,104.914557 18.7899952,105.617484 C20.2105658,105.336313 21.6311364,104.773972 22.90965,103.789874 C26.0349054,101.540507 27.0293049,98.1664573 25.8928484,96.6200178 C18.6479381,86.9196244 14.8123974,75.2510354 15.0965115,63.16069 C12.9656555,64.9883004 11.6871419,67.3782524 10.9768566,69.7682043 C10.5506854,69.4870335 9.98245716,69.2058627 9.55628597,68.9246919 C8.41982946,68.3623502 7.56748707,67.5188378 6.85720175,66.5347399 C5.15251698,63.5824463 6.14691643,59.7866402 9.13011478,58.0996152 C11.6871419,56.5531757 13.5338838,54.1632238 14.102112,51.2109301 C14.6703403,48.2586365 13.960055,45.3063429 12.2553702,42.9163909 C10.8347996,41.0887806 10.6927425,38.6988286 11.6871419,36.5900474 C12.6815414,34.4812663 14.6703403,33.2159976 16.9432533,33.0754121 C19.9264517,32.9348267 22.6255359,31.5289726 24.4722777,29.2796061 C26.3190196,27.0302395 27.1713619,23.9373605 26.7451908,21.1256522 C26.3190196,18.8762857 27.313419,16.6269191 29.1601608,15.221065 C31.0069027,13.8152109 33.4218728,13.5340401 35.4106717,14.6587233 C38.1097559,15.923992 41.2350113,15.923992 43.9340955,14.7993088 C46.6331798,13.6746255 48.7640357,11.4252589 49.7584352,8.61355069 C50.6107776,6.22359871 52.7416335,4.39598837 55.2986607,3.97423214 C57.4295167,3.5524759 59.5603726,4.39598837 60.6968291,6.0830133 C60.9809433,6.36418412 61.2650574,6.64535494 61.4071145,7.06711117 C65.2426552,11.1440881 71.7772801,11.4252589 76.0389921,7.4888674 C77.8857339,6.22359871 80.4427611,5.94242789 82.43156,6.92652576 C84.704473,7.77003822 86.2671007,9.59764856 86.6932719,11.9876005 C86.835329,12.831113 87.1194431,13.8152109 87.4035572,14.7993088 C71.493166,9.17589233 53.1678047,11.2846735 38.6779842,22.1097501 C15.6647397,39.6829264 10.9768566,72.1581563 28.1657614,95.2141637 C29.1601608,96.6200178 29.444275,98.4476281 28.8760467,100.134653 Z M108.854174,40.1046827 C108.001832,42.4946347 106.581261,44.4628304 104.450405,46.0092699 L33.2798157,99.2911406 C33.5639298,96.9011886 32.9957016,94.5112366 31.5751309,92.5430409 C15.8067968,71.3146439 20.0685087,41.5105368 41.2350113,25.4838 C49.474321,19.2980419 59.5603726,15.923992 69.9305383,15.923992 C72.2034513,15.923992 74.4763644,16.0645775 76.8913345,16.3457483 C89.5344132,18.1733586 100.898978,24.9214583 108.428003,35.0436079 C109.280345,36.7306328 109.422402,38.5582432 108.854174,40.1046827 Z" id="Shape"></path>
                            <path d="M80.55,51.8577049 C79.35,51.8577049 78.3,52.7518033 78.3,54.0929508 C78.3,54.0929508 78.3,54.0929508 78.3,54.0929508 C78.3,55.285082 79.2,56.3281967 80.55,56.3281967 C80.55,56.3281967 80.55,56.3281967 80.55,56.3281967 C81.75,56.3281967 82.8,55.4340984 82.8,54.0929508 C82.65,52.9008197 81.75,51.8577049 80.55,51.8577049 Z" id="Shape"></path>
                            <path d="M64.35,41.1285246 C63.15,41.1285246 62.1,42.022623 62.1,43.3637705 C62.1,43.3637705 62.1,43.3637705 62.1,43.3637705 C62.1,44.5559016 63,45.5990164 64.35,45.5990164 C64.35,45.5990164 64.35,45.5990164 64.35,45.5990164 C65.55,45.5990164 66.6,44.704918 66.6,43.3637705 C66.6,42.1716393 65.7,41.1285246 64.35,41.1285246 Z" id="Shape"></path>
                            <path d="M80.55,25.0347541 C78.8318182,25.0347541 77.4,26.4571833 77.4,28.1640984 C77.4,28.1640984 77.4,28.1640984 77.4,28.1640984 C77.4,29.8710134 78.8318182,31.2934426 80.55,31.2934426 C82.2681818,31.2934426 83.7,29.8710134 83.7,28.1640984 C83.7,26.4571833 82.2681818,25.0347541 80.55,25.0347541 Z" id="Shape"></path>
                            <path d="M63.9,26.3759016 C63.9,25.1837705 63,24.1406557 61.65,24.1406557 C60.45,24.1406557 59.4,25.0347541 59.4,26.3759016 C59.4,26.3759016 59.4,26.3759016 59.4,26.3759016 C59.4,27.5680328 60.3,28.6111475 61.65,28.6111475 C61.65,28.6111475 61.65,28.6111475 61.65,28.6111475 C62.85,28.6111475 63.9,27.7170492 63.9,26.3759016 Z" id="Shape"></path>
                            <path d="M50.85,54.54 C49.65,54.54 48.6,55.4340984 48.6,56.7752459 C48.6,56.7752459 48.6,56.7752459 48.6,56.7752459 C48.6,57.967377 49.5,59.0104918 50.85,59.0104918 C50.85,59.0104918 50.85,59.0104918 50.85,59.0104918 C52.05,59.0104918 53.1,58.1163934 53.1,56.7752459 C53.1,55.5831148 52.05,54.54 50.85,54.54 Z" id="Shape"></path>
                            <path d="M58.05,69.7396721 C56.85,69.7396721 55.8,70.6337705 55.8,71.974918 C55.8,71.974918 55.8,71.974918 55.8,71.974918 C55.8,73.1670492 56.7,74.2101639 58.05,74.2101639 C59.25,74.2101639 60.3,73.3160656 60.3,71.974918 C60.3,70.7827869 59.4,69.7396721 58.05,69.7396721 Z" id="Shape"></path>
                        </g>
                    </g>
                </g>
            </g>
        </g>
    </g>
</svg>