<?xml version="1.0" encoding="UTF-8"?>
<svg width="108px" height="94px" viewBox="0 0 108 94" version="1.1" xmlns="http://www.w3.org/2000/svg" xmlns:xlink="http://www.w3.org/1999/xlink">
    <!-- Generator: Sketch 49.3 (51167) - http://www.bohemiancoding.com/sketch -->
    <title>veggie_picto</title>
    <desc>Created with Sketch.</desc>
    <defs></defs>
    <g id="Page-1" stroke="none" stroke-width="1" fill="none" fill-rule="evenodd">
        <g id="ACCUEIL" transform="translate(-666.000000, -1568.000000)" fill="#FFFFFF" fill-rule="nonzero">
            <g id="NOS-PRODUITS" transform="translate(251.000000, 986.000000)">
                <g id="Group-2" transform="translate(0.000000, 192.000000)">
                    <g id="VÉGÉTARIEN" transform="translate(334.000000, 332.803279)">
                        <g id="veggie_picto" transform="translate(81.900000, 57.222295)">
                            <path d="M99.2153959,29.2289587 C94.4093086,22.4382435 83.785326,20.0489177 74.5525793,20.3004257 C77.7144789,14.8930043 77.9674308,9.10832098 77.9674308,8.85681301 C77.9674308,7.72502714 77.3350509,6.71899525 76.1967671,6.3417333 C75.1849592,5.96447134 73.9201994,6.46748728 73.4142955,7.34776518 C73.4142955,7.34776518 69.9994439,12.5036786 64.4345007,11.1203848 C61.5255531,10.3658608 58.4901295,10.9946308 55.5811819,13.0066945 C57.2253697,9.61133693 59.8813653,6.71899525 63.1697409,4.45542351 C64.4345007,3.7008996 64.6874527,2.19185177 63.9285968,1.06006589 C63.9285968,1.06006589 63.9285968,1.06006589 63.9285968,1.06006589 C63.1697409,-0.0717199779 61.6520291,-0.32322795 60.5137452,0.431295965 C55.5811819,3.7008996 52.0398544,8.35379707 50.1427147,13.6354645 C48.3720509,11.2461387 46.0954832,9.48558294 43.4394876,8.47955106 C34.0802649,4.5811775 23.2033304,10.4916148 22.6974264,10.7431228 C21.6856186,11.2461387 21.1797146,12.5036786 21.5591426,13.6354645 C21.8120945,14.7672503 22.8239024,15.5217743 24.0886622,15.3960203 C24.0886622,15.3960203 29.4006535,15.2702663 31.8036972,19.5459018 C26.2387539,18.7913779 18.144291,18.6656239 11.441064,24.3245533 C0.564129458,33.6303482 -6.2655736,59.9129312 8.40564038,78.5245211 C18.144291,91.0999197 33.068457,92.9862295 42.8071077,92.9862295 C45.4631033,92.9862295 47.739671,92.8604755 49.3838588,92.7347215 L50.9015705,92.6089676 C51.9133784,92.6089676 53.3046142,92.6089676 55.075278,92.7347215 C63.9285968,93.1119835 80.4969505,93.8665074 93.2710247,81.4168628 C105.792147,69.2187262 111.862994,47.3375327 99.2153959,29.2289587 Z M53.5575662,25.4563391 C53.5575662,25.4563391 53.5575662,25.4563391 53.5575662,25.4563391 C53.5575662,25.3305852 53.5575662,25.2048312 53.5575662,24.9533232 C53.5575662,24.9533232 53.5575662,24.8275692 53.5575662,24.8275692 C53.9369941,25.0790772 54.3164221,25.2048312 54.69585,25.3305852 C54.822326,25.3305852 64.4345007,26.588125 65.3198326,32.1213004 C65.6992605,34.8878881 66.9640203,37.4029678 68.8611601,39.2892776 C65.3198326,39.5407855 61.904981,38.5347537 58.8695575,36.6484439 C55.7076579,34.3848721 53.9369941,30.7380065 53.5575662,25.4563391 Z M63.4226928,15.8990362 C66.2051644,16.6535601 68.9876361,16.4020522 71.6436317,15.2702663 C70.8847758,17.2823301 69.620016,19.1686398 68.1023042,20.8034417 C66.8375444,20.9291956 65.6992605,21.1807036 64.6874527,21.4322116 C63.6756448,21.6837196 62.7903129,21.8094735 62.031457,22.0609815 C62.031457,22.0609815 61.904981,22.0609815 61.904981,22.0609815 C58.6166055,20.6776877 55.5811819,20.3004257 55.3282299,20.3004257 C55.3282299,20.3004257 55.201754,20.3004257 55.201754,20.3004257 C56.8459417,18.162608 60.0078413,15.0187583 63.4226928,15.8990362 Z M41.5423478,13.1324485 C44.5777714,14.3899884 46.9808151,17.0308221 48.4985269,21.0549496 C48.4985269,21.6837196 48.3720509,22.4382435 48.4985269,23.1927674 C47.486719,23.3185214 38.6334002,23.8215373 36.7362605,18.9171319 C35.8509286,16.4020522 34.0802649,14.2642344 31.8036972,12.7551866 C35.0920727,11.7491547 38.5069242,12.0006627 41.5423478,13.1324485 Z M89.8561732,77.8957512 C78.5998107,88.836348 64.0550727,88.207578 55.201754,87.8303161 C53.4310902,87.7045621 51.9133784,87.7045621 50.6486186,87.7045621 L49.0044308,87.8303161 C41.1629199,88.333332 22.9503784,89.4651179 12.0734439,75.5064255 C-0.194726438,59.7871773 4.99078885,36.2711819 14.6029635,28.0971728 C21.3061906,22.3124895 30.4124614,24.1987993 34.7126448,25.0790772 C35.2185487,25.2048312 35.5979766,25.2048312 35.9774046,25.3305852 C39.3922561,27.7199109 44.0718675,28.0971728 46.8543391,28.0971728 C47.613195,28.0971728 48.2455749,28.0971728 49.0044308,27.9714189 C49.7632867,33.6303482 52.1663304,37.9059837 56.0870858,40.6725714 C59.7548893,43.0618971 64.1815487,44.319437 68.6082081,44.193683 C71.5171557,44.193683 74.4261033,43.8164211 77.2085749,43.0618971 C78.0939068,42.8103892 78.7262867,42.0558653 78.9792387,41.1755874 C79.2321907,39.7922935 78.3468588,38.5347537 77.082099,38.2832457 C76.829147,38.2832457 71.0112518,37.0257058 70.2523959,31.3667765 C69.8729679,29.1032047 68.9876361,27.3426489 67.5964003,25.9593551 C77.7144789,23.9472913 90.994457,25.8336011 95.2946405,32.1213004 C106.298051,47.9663026 100.859584,67.0809084 89.8561732,77.8957512 Z" id="Shape"></path>
                            <path d="M27.3233612,74.2858401 C26.5014149,73.2504544 24.8575224,73.0203687 23.624603,73.7106258 C23.624603,73.7106258 23.624603,73.7106258 23.624603,73.7106258 C22.3916836,74.4008829 22.1177015,75.89644 23.0766388,76.8167829 C23.8985851,77.8521686 25.5424776,78.0822543 26.775397,77.3919972 C26.775397,77.3919972 26.775397,77.3919972 26.775397,77.3919972 C28.0083164,76.70174 28.2822985,75.3212258 27.3233612,74.2858401 Z" id="Shape"></path>
                            <path d="M24.3817429,65.730774 C24.3817429,65.730774 24.2652802,65.730774 24.3817429,65.730774 C23.3335791,66.6728898 23.1006538,68.2879453 23.7994296,69.499237 C24.4982055,70.7105287 25.8957573,70.9797046 26.9439211,70.1721768 C26.9439211,70.1721768 26.9439211,70.1721768 26.9439211,70.1721768 C27.9920849,69.364649 28.2250102,67.6150055 27.4097717,66.4037138 C26.7109958,65.1924222 25.3134441,64.9232462 24.3817429,65.730774 Z" id="Shape"></path>
                            <path d="M22.09432,61.0391237 C21.3966092,59.827832 20.0011877,59.5586561 18.9546216,60.3661838 C18.9546216,60.3661838 18.9546216,60.3661838 18.9546216,60.3661838 C17.9080554,61.1737116 17.6754852,62.9233552 18.4894811,64.1346468 C19.1871918,65.3459385 20.5826133,65.6151144 21.6291795,64.8075866 C21.6291795,64.8075866 21.6291795,64.8075866 21.6291795,64.8075866 C22.5594605,63.8654709 22.7920308,62.1158274 22.09432,61.0391237 Z" id="Shape"></path>
                            <path d="M19.39432,68.9212499 C18.6966092,67.8858642 17.3011877,67.6557785 16.2546216,68.3460356 C16.2546216,68.3460356 16.2546216,68.3460356 16.2546216,68.3460356 C15.2080554,69.0362928 14.9754852,70.5318499 15.7894811,71.4521927 C16.4871918,72.4875784 17.8826133,72.7176641 18.9291795,72.027407 C18.9291795,72.027407 18.9291795,72.027407 18.9291795,72.027407 C19.8594605,71.3371499 20.0920308,69.9566356 19.39432,68.9212499 Z" id="Shape"></path>
                            <path d="M14.89432,61.933222 C14.1966092,60.7219304 12.8011877,60.4527544 11.7546216,61.2602822 C11.7546216,61.2602822 11.7546216,61.2602822 11.7546216,61.2602822 C10.7080554,62.06781 10.4754852,63.8174535 11.2894811,65.0287452 C11.9871918,66.2400369 13.3826133,66.5092128 14.4291795,65.701685 C14.4291795,65.701685 14.4291795,65.701685 14.4291795,65.701685 C15.3594605,64.7595693 15.5920308,63.0099257 14.89432,61.933222 Z" id="Shape"></path>
                        </g>
                    </g>
                </g>
            </g>
        </g>
    </g>
</svg>